<svg width="190" height="164" viewBox="0 0 190 164" fill="none" xmlns="http://www.w3.org/2000/svg">
<path d="M9.24136 18.8598C5.98814 24.1677 3.84496 30.0802 2.94136 36.2398C2.56136 38.7598 6.18136 40.9698 7.51136 38.1598C9.833 33.2791 11.6233 28.1631 12.8514 22.8998L7.94136 22.2398C5.46803 43.9265 4.08136 65.6998 3.78136 87.5598C3.78136 90.7998 8.58136 90.7398 8.78136 87.5598L10.0914 66.7098L5.18136 67.3798C7.78136 80.3331 10.2147 93.3331 12.4814 106.38L17.0514 104.45C14.3885 99.2604 12.2737 93.8076 10.7414 88.1798C10.0114 85.5198 5.69136 85.9698 5.82136 88.8498C6.07148 93.9557 5.94111 99.0732 5.43136 104.16H10.4314V92.1598C10.4314 88.9398 5.43136 88.9398 5.43136 92.1598V108.34L10.3414 107.68L10.1714 107.13L8.94136 109.97L7.78136 109.65L7.14137 107.22L6.25136 108.34C3.92136 109.78 5.40136 113.86 8.17136 112.91C10.0934 112.229 12.1442 111.989 14.1714 112.21C16.2914 112.4 17.5314 109.31 15.9414 107.94L14.8214 106.27L11.7514 109.35C12.7924 109.691 13.7522 110.242 14.5714 110.97C16.0414 112.07 18.5014 110.6 18.3314 108.81C18.0345 105.354 17.5404 101.919 16.8514 98.5198L12.2814 100.44L15.9614 106.44C17.3614 108.73 20.3214 107.52 20.6214 105.18L20.9814 102.38L16.0714 103.05C16.9041 106.222 18.6079 109.099 20.9901 111.354C23.3723 113.609 26.3378 115.152 29.5514 115.81L30.2114 110.9C22.2582 111.952 14.169 110.768 6.85136 107.48L5.58136 112.14L12.4814 111.41L15.4814 111.1C16.4814 111.37 16.9614 111.01 16.9914 110.01L20.9114 110.52L12.5714 97.6698C12.3147 97.2567 11.9445 96.9263 11.5049 96.7181C11.0653 96.51 10.5751 96.433 10.0929 96.4963C9.6107 96.5596 9.15697 96.7606 8.78602 97.0751C8.41508 97.3896 8.14265 97.8044 8.00136 98.2698L6.44136 104.36L11.3514 105.02L11.9914 94.6898C12.1914 91.4798 7.19136 91.4898 6.99136 94.6898L6.35136 105.02C6.18136 107.85 10.5714 108.39 11.2614 105.68L12.8514 99.5998L8.28136 100.19L16.5314 113.04C16.7268 113.366 16.9936 113.644 17.3116 113.852C17.6297 114.061 17.9908 114.194 18.3679 114.244C18.745 114.293 19.1284 114.256 19.4892 114.136C19.85 114.015 20.1789 113.815 20.4514 113.55C22.2614 111.55 22.4514 108.55 19.9314 106.88C16.4014 104.48 9.36136 106.74 5.56136 107.14C3.40136 107.37 1.78136 110.66 4.30136 111.8C12.3829 115.545 21.3472 116.969 30.1914 115.91C32.7414 115.6 33.8714 111.64 30.8514 111C28.4698 110.579 26.26 109.481 24.4865 107.837C22.7129 106.193 21.4508 104.073 20.8514 101.73C20.0314 98.8098 16.2814 99.7298 15.9414 102.39L15.5814 105.19L20.2314 103.97L16.5414 97.9698C16.2261 97.4629 15.7405 97.0849 15.1717 96.9038C14.6029 96.7226 13.9881 96.7501 13.4378 96.9813C12.8874 97.2126 12.4375 97.6324 12.1687 98.1654C11.9 98.6984 11.83 99.3098 11.9714 99.8898C12.5935 102.842 13.0475 105.826 13.3314 108.83L17.1014 106.68C15.8658 105.762 14.4965 105.041 13.0414 104.54C11.2114 103.86 9.48136 105.9 9.96136 107.61C10.3216 109.128 11.1636 110.489 12.3614 111.49L14.1314 107.22C11.6661 106.965 9.17505 107.265 6.84136 108.1L8.77136 112.67C10.7714 111.44 13.0014 109.19 11.7114 106.67C10.7114 104.67 8.09136 104.51 6.42136 105.67C5.95413 105.956 5.59055 106.384 5.38367 106.891C5.17679 107.398 5.13744 107.959 5.27136 108.49L5.44136 109.04C6.27136 111.69 10.3514 111.26 10.3514 108.37V92.1398H5.35136L5.40136 104.14C5.40136 107.42 10.0914 107.29 10.4014 104.14C10.9321 99.0481 11.0825 93.9239 10.8514 88.8098L5.85136 89.4698C7.52415 95.527 9.82671 101.392 12.7214 106.97C14.1014 109.65 17.7214 107.66 17.2914 105.04C15.0114 92.0198 12.5747 79.0198 9.98136 66.0398C9.40136 63.1398 5.24136 64.0398 5.07136 66.6998L3.76136 87.5498H8.76136C9.06136 65.7098 10.448 43.9365 12.9214 22.2298C13.2414 19.4198 8.63136 18.8498 8.01136 21.5598C6.9195 26.4106 5.30334 31.1284 3.19136 35.6298L7.76136 37.5598C8.57844 31.8307 10.5481 26.3266 13.5514 21.3798C15.2214 18.6198 10.9014 16.1098 9.24136 18.8598Z" fill="#FFB294"/>
<path d="M7.85128 120.04C15.6513 119.1 23.5058 118.689 31.3613 118.81C34.5813 118.87 34.5813 113.87 31.3613 113.81C23.5058 113.689 15.6513 114.1 7.85128 115.04C4.70128 115.43 4.66128 120.43 7.85128 120.04Z" fill="#FFB294"/>
<path d="M5.76134 126.97C6.75067 126.438 7.81678 126.064 8.92134 125.86C9.45369 125.775 9.99226 125.735 10.5313 125.74H11.1113C11.6513 125.85 11.5613 125.74 10.8513 125.29L10.5113 124.03V124.39L10.8513 123.13C11.3213 122.7 11.2213 122.72 10.5613 123.13L9.41134 123.81L7.11134 125.17C4.34134 126.8 6.86134 131.17 9.64134 129.49C11.3013 128.49 13.8013 127.58 14.9313 125.96C15.1813 125.602 15.3543 125.197 15.4395 124.769C15.5247 124.342 15.5201 123.901 15.4261 123.475C15.3321 123.049 15.1507 122.648 14.8934 122.296C14.6361 121.943 14.3085 121.649 13.9313 121.43C10.9313 119.57 6.13134 121.09 3.26134 122.6C0.391338 124.11 2.93134 128.41 5.78134 126.92L5.76134 126.97Z" fill="#FFB294"/>
<path d="M4.79131 127.83C8.01131 127.83 8.02131 122.83 4.79131 122.83C1.56131 122.83 1.57131 127.83 4.79131 127.83Z" fill="#FFB294"/>
<path d="M3.24133 128.23C3.13162 129.844 3.58481 131.447 4.52377 132.765C5.46273 134.084 6.82944 135.036 8.39133 135.46C12.6713 136.74 16.9913 134 21.1713 135.46C24.1713 136.52 25.5213 131.69 22.5013 130.64C20.3589 129.955 18.0779 129.824 15.8713 130.26C13.6513 130.59 7.79133 132.26 8.24133 128.26C8.60133 125.07 3.59133 125.1 3.24133 128.26V128.23Z" fill="#FFB294"/>
<path d="M4.50131 134.38L4.19131 136.59C4.09997 136.96 4.09281 137.346 4.17037 137.719C4.24793 138.093 4.40822 138.444 4.63945 138.747C4.87068 139.05 5.16696 139.298 5.50649 139.471C5.84601 139.645 6.22013 139.74 6.60131 139.75C15.0113 139.83 23.2413 136.94 31.6013 135.94C39.9823 134.969 48.4355 134.782 56.8513 135.38C60.0613 135.59 60.0513 130.59 56.8513 130.38C48.4179 129.793 39.9482 129.991 31.5513 130.97C23.2713 131.97 14.9413 134.86 6.55131 134.78L9.01131 137.97L9.32131 135.75C9.75131 132.61 4.93131 131.25 4.50131 134.43V134.38Z" fill="#FFB294"/>
<path d="M39.0114 142.7C52.7647 141.213 66.548 140.103 80.3614 139.37C83.5614 139.19 83.5814 134.19 80.3614 134.37C66.548 135.096 52.7647 136.206 39.0114 137.7C35.8514 138.04 35.8114 143.05 39.0114 142.7Z" fill="#FFB294"/>
<path d="M65.7313 148.26C76.4817 146.523 87.3845 145.916 98.2613 146.45C101.471 146.61 101.461 141.61 98.2613 141.45C86.9358 140.934 75.5874 141.605 64.4013 143.45C61.2313 143.96 62.5813 148.78 65.7313 148.27V148.26Z" fill="#FFB294"/>
<path d="M24.9514 122.03C38.9676 119.42 53.3452 119.42 67.3614 122.03L68.0214 117.12C52.8514 116.9 37.7614 116.88 22.8514 119.57C20.1014 120.06 20.7114 124.68 23.5214 124.48C46.7486 122.825 70.0642 122.825 93.2914 124.48L92.6314 119.56C69.1414 124.31 44.9814 118.16 21.5414 123.56C18.8414 124.18 19.3714 128.68 22.2114 128.47L45.2114 126.81L44.4514 121.97C34.7856 124.737 24.6657 125.553 14.6814 124.37L16.4514 128.64C17.2383 127.583 18.295 126.757 19.5106 126.249C20.7263 125.74 22.0563 125.568 23.3614 125.75L21.2014 121.97C18.8874 125.851 15.497 128.977 11.4414 130.97L15.2014 133.13C15.389 130.127 16.4297 127.241 18.2014 124.81C19.8514 122.44 16.2514 119.81 14.2714 121.81C11.2204 124.844 8.40557 128.107 5.85138 131.57L10.1714 134.09C11.9898 131.557 14.3907 129.5 17.1714 128.09L13.4114 125.93C13.5882 127.891 13.2483 129.865 12.4255 131.655C11.6026 133.444 10.3256 134.987 8.72138 136.13L12.3714 138.97C14.1626 133.093 17.8965 127.998 22.9614 124.52L19.5414 121.1C17.4481 126.029 14.6081 130.606 11.1214 134.67L15.3014 135.78C13.9268 132.059 12.755 128.267 11.7914 124.42C11.1114 121.67 6.88138 122.27 6.88138 125.09V146.03H11.8814L11.8514 136.4L7.19138 137.66C8.94471 140.653 10.7747 143.59 12.6814 146.47C14.4514 149.15 18.7814 146.65 17.0014 143.95C15.0914 141.06 13.2614 138.13 11.5114 135.13C11.225 134.669 10.7975 134.312 10.2924 134.114C9.78735 133.915 9.23167 133.885 8.70806 134.028C8.18446 134.171 7.72091 134.479 7.38638 134.906C7.05185 135.333 6.86421 135.857 6.85138 136.4L6.94138 145.99C6.94138 149.21 11.9414 149.21 11.9414 145.99V125.05L7.03138 125.71C7.99647 129.557 9.16817 133.349 10.5414 137.07C11.1314 138.68 13.3914 139.71 14.7214 138.17C18.4964 133.805 21.5759 128.883 23.8514 123.58C24.7214 121.58 22.7414 118.58 20.4314 120.16C14.2788 124.341 9.73276 130.491 7.54138 137.6C6.93138 139.6 9.43138 141.73 11.2214 140.43C13.5712 138.838 15.4667 136.662 16.722 134.117C17.9772 131.571 18.5491 128.743 18.3814 125.91C18.3698 125.475 18.2466 125.05 18.0235 124.676C17.8005 124.302 17.485 123.992 17.1075 123.775C16.73 123.558 16.3031 123.442 15.8677 123.437C15.4323 123.433 15.0032 123.54 14.6214 123.75C11.1183 125.623 8.11193 128.303 5.85138 131.57C3.96138 134.21 8.27138 136.63 10.1714 134.09C12.5043 130.984 15.0718 128.063 17.8514 125.35L13.9214 122.35C11.6876 125.54 10.4046 129.299 10.2214 133.19C10.0914 135.19 12.4114 136.19 13.9814 135.35C18.7845 132.894 22.7877 129.12 25.5214 124.47C25.7337 124.088 25.8437 123.659 25.8407 123.222C25.8378 122.786 25.722 122.357 25.5046 121.979C25.2871 121.601 24.9755 121.285 24.6 121.062C24.2244 120.84 23.7977 120.718 23.3614 120.71C21.3946 120.502 19.4071 120.791 17.5813 121.551C15.7554 122.311 14.1497 123.518 12.9114 125.06C12.5792 125.416 12.3566 125.861 12.2701 126.34C12.1836 126.82 12.2367 127.314 12.4233 127.764C12.6099 128.214 12.9219 128.601 13.3223 128.879C13.7227 129.156 14.1945 129.313 14.6814 129.33C25.1167 130.534 35.6871 129.657 45.7814 126.75C48.4114 126 48.0214 121.63 45.1214 121.84L22.1214 123.5L22.7814 128.41C46.1714 123.02 70.3714 129.16 93.8714 124.41C96.7814 123.82 95.8714 119.69 93.2014 119.5C69.9742 117.845 46.6586 117.845 23.4314 119.5L24.0914 124.41C38.5914 121.8 53.3114 121.92 67.9814 122.11C70.7314 122.11 71.4814 117.73 68.6514 117.2C53.7576 114.41 38.4752 114.41 23.5814 117.2C20.4214 117.79 21.7614 122.61 24.9114 122.02L24.9514 122.03Z" fill="#FFB294"/>
<path d="M18.2214 143.03C23.3127 141.475 28.6194 140.743 33.9414 140.86L33.2814 135.97C26.6622 138.487 19.6697 139.883 12.5914 140.1C9.3814 140.2 9.3614 145.1 12.5914 145.1L29.6814 145.34L27.5214 141.58C23.9914 146.23 18.1514 147.76 12.7814 149.2L14.1114 153.97C19.6077 152.045 25.3878 151.054 31.2114 151.04L29.9514 146.39C25.0457 148.885 19.529 149.926 14.0514 149.39V154.39C24.3645 153.814 34.7094 154.485 44.8614 156.39C49.2714 157.23 53.7314 158.18 58.2414 158.11C63.2414 158.03 68.0514 156.27 72.9814 157.67C76.0814 158.56 77.4114 153.74 74.3114 152.85C69.9614 151.61 65.8714 152.39 61.4614 152.85C55.6314 153.49 50.0814 152.27 44.3814 151.2C34.3783 149.401 24.1982 148.787 14.0514 149.37C13.3884 149.37 12.7525 149.633 12.2836 150.102C11.8148 150.571 11.5514 151.207 11.5514 151.87C11.5514 152.533 11.8148 153.169 12.2836 153.638C12.7525 154.106 13.3884 154.37 14.0514 154.37C20.4128 154.936 26.8035 153.673 32.4714 150.73C34.7414 149.59 33.6014 146.07 31.2114 146.07C24.9374 146.069 18.7077 147.12 12.7814 149.18C9.7814 150.18 10.9614 154.84 14.1114 154C20.9814 152.16 27.4014 149.92 31.8414 144.09C33.0414 142.51 31.3914 140.35 29.6814 140.32L12.5914 140.08V145.08C20.1124 144.867 27.5462 143.411 34.5914 140.77C37.1514 139.77 36.8914 135.92 33.9314 135.86C28.1496 135.735 22.3846 136.528 16.8514 138.21C13.7814 139.14 15.0914 143.97 18.1814 143.03H18.2214Z" fill="#FFB294"/>
<path d="M18.6113 138.97L18.7113 135.97L14.1413 133.97C12.8731 139.822 10.8776 145.493 8.20134 150.85L12.7713 152.78C13.2763 151.017 13.946 149.307 14.7713 147.67L10.2013 145.74L10.7413 147.24V149.77C11.2913 148.89 16.5513 148.32 17.6413 148.07L16.3113 143.25L14.4113 142.43L10.4813 145.43C12.1213 147.43 14.2913 151.89 17.2813 152.16C17.7983 152.192 18.3162 152.112 18.7994 151.926C19.2826 151.739 19.7197 151.45 20.0807 151.079C20.4417 150.707 20.7181 150.262 20.8908 149.774C21.0635 149.286 21.1285 148.766 21.0813 148.25C21.0313 146.93 20.3313 146.42 19.7813 145.25C18.3713 142.41 18.4113 139.48 18.3813 136.39C18.2074 130.789 18.8337 125.193 20.2413 119.77H15.4513L15.3413 122.61L18.4213 120.97L17.3613 120.19L14.9513 123.36C17.2948 123.141 19.6568 123.484 21.8413 124.36L23.1713 119.54C21.9413 119.34 9.86133 117.71 11.1713 115.02L6.60133 113.1L5.91133 116.87H10.7313C10.0005 114.682 9.71492 112.37 9.89134 110.07L6.73133 112.48C8.12227 112.566 9.46504 113.022 10.6213 113.8C13.4413 115.37 15.9613 111.05 13.1513 109.48C11.5774 108.565 9.84863 107.948 8.05134 107.66C7.69106 107.575 7.31659 107.569 6.95394 107.643C6.59129 107.718 6.24916 107.87 5.95132 108.09C5.65347 108.31 5.40706 108.592 5.22919 108.916C5.05133 109.241 4.94627 109.6 4.92133 109.97C4.71778 112.719 5.05758 115.482 5.92133 118.1C6.62133 120.26 10.2713 120.68 10.7413 118.1L11.4313 114.33C11.9113 111.73 8.22133 109.69 6.86133 112.4C2.17133 121.8 15.7213 123.26 21.8613 124.26C22.5005 124.436 23.1836 124.351 23.7602 124.024C24.3369 123.697 24.76 123.154 24.9363 122.515C25.1127 121.876 25.0279 121.193 24.7007 120.616C24.3734 120.039 23.8305 119.616 23.1913 119.44C20.5767 118.428 17.7619 118.041 14.9713 118.31C13.5113 118.43 11.9713 119.83 12.5613 121.47C13.4913 123.89 14.5613 125.06 17.1113 125.74C17.749 125.909 18.4277 125.822 19.0017 125.497C19.5758 125.171 19.9993 124.634 20.1813 124C20.6175 122.196 20.655 120.319 20.2913 118.5C19.8413 115.98 16.0913 116.27 15.4713 118.5C13.5713 125.24 13.3313 132.11 13.4713 139.08C13.5213 141.08 13.1513 144.69 14.5413 146.5C15.5413 147.85 18.4013 148.83 17.8113 146.5C17.4413 145.08 14.9913 143.04 14.0513 141.88C12.1313 139.51 9.05134 142.54 10.1313 144.88C10.4193 145.583 10.8438 146.221 11.3801 146.759C11.9164 147.297 12.5539 147.724 13.2559 148.014C13.9579 148.304 14.7104 148.452 15.47 148.45C16.2296 148.447 16.9812 148.294 17.6813 148C20.6813 146.88 19.5313 142.43 16.3513 143.18C13.1713 143.93 8.40134 144.11 6.46134 147.18C6.23529 147.563 6.11607 148 6.11607 148.445C6.11607 148.89 6.23529 149.327 6.46134 149.71C9.09134 153.86 14.3513 151.16 15.0613 147.01C15.5013 144.42 11.8813 142.37 10.4913 145.08C9.45166 147.099 8.60458 149.212 7.96134 151.39C7.18134 154.06 11.2413 155.89 12.5313 153.31C15.4205 147.577 17.5839 141.507 18.9713 135.24C19.1172 134.659 19.0504 134.045 18.783 133.508C18.5156 132.972 18.0653 132.55 17.5134 132.316C16.9615 132.083 16.3444 132.055 15.7736 132.238C15.2029 132.42 14.7162 132.8 14.4013 133.31C13.5366 134.477 13.0615 135.886 13.0435 137.339C13.0256 138.791 13.4657 140.212 14.3013 141.4C16.0313 144.1 20.3613 141.59 18.6213 138.87L18.6113 138.97Z" fill="#FFB294"/>
<path d="M38.3713 10.1798C37.6033 11.3696 37.2183 12.7662 37.2681 14.1816C37.3179 15.5969 37.8001 16.963 38.6498 18.0959C39.4995 19.2289 40.6759 20.0743 42.0207 20.5184C43.3655 20.9625 44.814 20.9839 46.1713 20.5798C49.2813 19.7498 47.9613 14.9198 44.8413 15.7498C44.4489 15.8508 44.035 15.8301 43.6546 15.6907C43.2741 15.5512 42.945 15.2994 42.7108 14.9688C42.4766 14.6381 42.3484 14.244 42.3431 13.8389C42.3379 13.4337 42.4558 13.0364 42.6813 12.6998C44.3813 9.95978 40.0513 7.43978 38.3713 10.1798Z" fill="#FFB294"/>
<path d="M43.4114 15.0397C40.8683 15.7959 38.6594 17.3974 37.1501 19.5795C35.6409 21.7615 34.9217 24.3934 35.1114 27.0397C35.2614 29.3697 38.5314 30.6197 39.7714 28.2997C41.8782 24.4173 43.3438 20.2198 44.1114 15.8697C44.6614 12.7497 40.2014 11.3897 39.2914 14.5397C36.5063 24.1945 34.7465 34.116 34.0414 44.1397C33.8114 47.3497 38.8114 47.3397 39.0414 44.1397C39.7314 34.5642 41.4309 25.0883 44.1114 15.8697L39.2914 14.5397C38.6368 18.4704 37.343 22.2673 35.4614 25.7797L40.1114 27.0497C39.9323 25.5007 40.2958 23.9375 41.14 22.6264C41.9843 21.3153 43.257 20.3376 44.7414 19.8597C47.7414 18.8597 46.4714 14.0097 43.4114 15.0397Z" fill="#FFB294"/>
<path d="M37.5113 13.3198L34.5113 26.0998C33.7813 29.2298 38.6013 30.5598 39.3413 27.4298L42.3413 14.6498C43.0713 11.5198 38.2513 10.1798 37.5113 13.3198Z" fill="#FFB294"/>
<path d="M36.4113 3.70975C15.0913 6.43975 10.7413 29.5897 11.1213 47.3897C11.5813 68.0898 12.8513 89.9697 24.2013 107.97C25.9213 110.68 30.2013 108.17 28.5113 105.44C18.7913 90.1298 17.0313 71.9697 16.3413 54.1898C15.7313 38.4398 15.3413 11.4097 36.4113 8.70975C39.5613 8.30975 39.6013 3.29975 36.4113 3.70975Z" fill="#FFB294"/>
<path d="M38.7013 99.0698C36.7514 100.476 35.1982 102.362 34.1925 104.545C33.1867 106.728 32.7626 109.134 32.9613 111.53C33.2613 114.71 38.2613 114.74 37.9613 111.53C37.7597 110.007 37.9538 108.458 38.5248 107.033C39.0958 105.607 40.0245 104.352 41.2213 103.39C43.7513 101.46 41.2213 97.1198 38.7013 99.0698Z" fill="#FFB294"/>
<path d="M31.1714 111.03C46.3633 114.195 61.7207 116.505 77.1714 117.95L74.7514 116.12L75.0014 117.34C75.6414 120.49 80.4614 119.15 79.8214 116.01L79.5814 114.79C79.4245 114.27 79.1065 113.814 78.6733 113.487C78.2401 113.159 77.7142 112.978 77.1714 112.97C62.167 111.56 47.2536 109.31 32.5014 106.23C29.3614 105.57 28.0214 110.39 31.1714 111.05V111.03Z" fill="#FFB294"/>
<path d="M32.1913 125.88C27.7636 124.893 23.1341 125.396 19.0213 127.31C16.4613 128.47 18.2813 132.86 20.9413 131.88C24.3551 130.622 27.8413 129.57 31.3813 128.73C34.5113 127.98 33.1913 123.16 30.0513 123.9C26.5157 124.748 23.033 125.803 19.6213 127.06L21.5413 131.63C24.4665 130.323 27.7356 129.997 30.8613 130.7C34.0013 131.39 35.3413 126.57 32.1913 125.88Z" fill="#FFB294"/>
<path d="M127.681 20.6698C125.972 21.143 124.404 22.025 123.111 23.2398L127.041 26.2398L128.931 23.5598L124.611 21.0298C123.442 23.4133 122.84 26.0349 122.851 28.6898C122.864 29.1787 123.018 29.6534 123.295 30.0565C123.572 30.4596 123.96 30.7738 124.412 30.9611C124.863 31.1484 125.36 31.2007 125.841 31.1117C126.322 31.0227 126.766 30.7963 127.121 30.4598L131.031 26.6698C133.381 24.3898 129.921 21.1098 127.491 23.1298C125.248 24.9389 123.626 27.4037 122.851 30.1798C122.071 32.7098 125.251 34.1798 127.031 32.6098L134.531 26.0898L130.601 23.0898L125.861 30.4298C124.561 32.4298 127.251 35.3698 129.281 33.8498L141.151 24.9698L137.731 21.5498L132.991 28.6198C131.321 31.1098 134.881 33.3798 136.921 31.6198L144.141 25.4798L140.211 22.4798L136.391 30.1098C135.391 32.1098 137.621 35.1098 139.811 33.5298C142.697 31.4216 145.32 28.974 147.621 26.2398L143.441 23.8098L141.041 30.9698C140.141 33.6598 144.271 35.3798 145.611 32.8998L149.611 25.4898L144.961 24.2298L145.411 35.2998C145.428 35.895 145.656 36.4648 146.055 36.9074C146.453 37.3499 146.996 37.6365 147.586 37.7158C148.176 37.7951 148.775 37.6621 149.276 37.3404C149.777 37.0187 150.148 36.5294 150.321 35.9598L154.321 24.4698L149.411 23.8098L149.351 38.5798C149.351 41.8098 154.231 41.7898 154.351 38.5798L154.851 25.8998H149.851C150.175 36.0375 149.958 46.1852 149.201 56.2998H154.201L152.851 26.0598C152.711 22.7898 148.161 22.8898 147.851 26.0598L144.611 59.4298H149.611C148.667 49.7937 148.393 40.1038 148.791 30.4298H143.791C143.919 39.4378 143.374 48.4428 142.161 57.3698H146.991C144.893 47.5078 143.837 37.4525 143.841 27.3698C143.841 24.1498 138.911 24.1498 138.841 27.3698L138.181 58.3698H143.181C141.984 48.8628 141.649 39.267 142.181 29.6998H137.181C137.171 38.5405 136.502 47.3682 135.181 56.1098L140.091 56.7698L137.851 33.4298C137.541 30.2798 132.911 30.1498 132.851 33.4298C132.719 41.0774 131.903 48.6978 130.411 56.1998L135.321 56.8598L134.661 31.9698C134.581 28.7198 129.931 28.7998 129.661 31.9698L127.601 55.9698H132.601L131.511 33.5498C131.381 30.9098 127.001 29.9498 126.601 32.8798L123.511 55.5698L128.421 56.2298L128.631 35.3598H123.631C124.581 52.1863 124.481 69.0557 123.331 85.8698H128.331L131.331 39.5698L126.421 40.2298C129.518 59.5778 129.855 79.2672 127.421 98.7098H132.421C132.362 84.4115 133.12 70.1216 134.691 55.9098H129.691C130.065 68.4098 130.158 80.9131 129.971 93.4198C129.971 96.6698 134.751 96.5998 134.971 93.4198C135.845 80.9198 137.118 68.4598 138.791 56.0398L133.851 55.3198C134.291 68.1931 134.161 81.0598 133.461 93.9198C133.281 97.1798 138.141 97.0698 138.461 93.9198L141.751 61.6998H136.751C137.338 72.7664 137.445 83.8364 137.071 94.9098C136.961 98.1298 141.951 98.1198 142.071 94.9098C142.485 83.6668 143.857 72.4796 146.171 61.4698L141.261 60.8098C142.489 71.4299 142.993 82.1212 142.771 92.8098H147.771C147.305 81.6281 147.938 70.4277 149.661 59.3698L144.751 58.7098C146.107 69.3725 146.556 80.1312 146.091 90.8698H151.091C150.4 77.1067 152.123 63.329 156.181 50.1598L151.271 49.4898C148.601 69.6398 149.721 89.9098 150.961 110.13C151.151 113.32 155.861 113.37 155.961 110.13L157.341 63.0698C157.431 59.8498 152.471 59.8598 152.341 63.0698C151.675 79.3831 151.778 95.6898 152.651 111.99C152.651 112.653 152.915 113.289 153.384 113.758C153.852 114.226 154.488 114.49 155.151 114.49C155.814 114.49 156.45 114.226 156.919 113.758C157.388 113.289 157.651 112.653 157.651 111.99C158.447 103.876 158.056 95.6905 156.491 87.6898C156.001 85.1398 152.351 85.4898 151.671 87.6898C148.681 97.3273 146.73 107.257 145.851 117.31L150.761 116.64C148.732 109.976 147.721 103.045 147.761 96.0798H142.761C142.745 103.534 142.187 110.977 141.091 118.35H145.851C143.782 111.414 142.51 104.264 142.061 97.0398C141.871 93.8498 136.931 93.8098 137.061 97.0398C137.461 105.856 136.972 114.691 135.601 123.41H140.421C137.741 113.026 138.442 102.058 142.421 92.0998L138.851 93.5898C145.851 99.0198 144.921 109.59 144.121 117.42H149.121L151.851 87.4198H146.851C147.061 89.5898 148.851 112.71 147.071 112.86L149.481 114.7C146.6 106.363 145.143 97.6004 145.171 88.7798C145.171 85.5598 140.171 85.5598 140.171 88.7798C140.136 99.653 138.384 110.453 134.981 120.78H139.811C136.658 109.857 134.723 98.6183 134.041 87.2698H129.041C129.629 95.9285 129.576 104.619 128.881 113.27H133.881C132.443 102.232 132.018 91.0853 132.611 79.9698H127.611C127.884 90.9526 127.329 101.94 125.951 112.84H130.951L129.091 85.0098C129.091 84.3467 128.828 83.7108 128.359 83.242C127.89 82.7732 127.254 82.5098 126.591 82.5098C125.928 82.5098 125.292 82.7732 124.824 83.242C124.355 83.7108 124.091 84.3467 124.091 85.0098C123.298 98.4231 122.878 111.85 122.831 125.29H127.831L127.731 96.2898H122.731C124.84 112.301 126.022 128.422 126.271 144.57H131.271C130.934 135.446 131.289 126.31 132.331 117.24H127.331C127.431 125.853 127.801 134.453 128.441 143.04C128.681 146.21 133.551 146.29 133.441 143.04C133.158 134.807 133.325 126.565 133.941 118.35H128.941C130.037 126.637 130.552 134.991 130.481 143.35C130.481 146.58 135.331 146.55 135.481 143.35L136.481 121.79H131.481C132.19 129.237 131.163 136.746 128.481 143.73H133.301C131.585 137.45 130.447 131.027 129.901 124.54C129.641 121.38 124.901 121.27 124.901 124.54V145.21H129.901V138.71C129.901 135.49 124.901 135.48 124.901 138.71V155.06C124.901 157.91 129.001 158.41 129.811 155.72L132.811 145.9L127.901 145.24L128.101 151.03C128.116 151.571 128.305 152.094 128.641 152.52C128.976 152.945 129.439 153.252 129.963 153.393C130.486 153.535 131.041 153.504 131.545 153.305C132.049 153.106 132.475 152.75 132.761 152.29C134.182 150.068 135.283 147.658 136.031 145.13H131.211C131.787 146.826 131.787 148.664 131.211 150.36C130.601 152.97 134.591 154.99 135.781 152.28L138.141 146.91L133.481 145.64L133.651 150.05C133.771 153.05 137.521 153.23 138.571 150.71L140.121 146.97H135.301L136.161 150.07C136.901 152.68 141.381 152.29 141.081 149.4L140.821 149.54H138.291L138.881 149.99L137.651 147.83V148.62L138.891 146.46L138.321 146.76L142.091 148.92C141.771 139.366 141.455 129.816 141.141 120.27C141.041 117.03 136.381 117.09 136.141 120.27C135.601 127.603 135.415 134.92 135.581 142.22C135.661 145.48 140.301 145.38 140.581 142.22L142.721 118.33H137.721C138.514 126.705 138.848 135.118 138.721 143.53H143.721C143.806 134.808 144.927 126.127 147.061 117.67L142.151 117.01L142.211 137.35C142.211 140.63 146.891 140.5 147.211 137.35L148.851 120.66H143.851C144.283 125.868 144.4 131.097 144.201 136.32C144.081 139.56 148.951 139.49 149.201 136.32C149.72 129.731 150.872 123.208 152.641 116.84L147.731 116.18L147.831 132.26C147.831 135.49 152.651 135.45 152.831 132.26C153.234 124.955 154.079 117.682 155.361 110.48L150.451 109.82C150.111 119.86 150.271 129.896 150.931 139.93C151.141 143.12 155.851 143.17 155.931 139.93L156.541 113.84H151.541C151.621 126.62 152.115 139.383 153.021 152.13C153.021 152.793 153.285 153.429 153.754 153.898C154.222 154.366 154.858 154.63 155.521 154.63C156.184 154.63 156.82 154.366 157.289 153.898C157.758 153.429 158.021 152.793 158.021 152.13L159.021 141.28C159.271 138.49 154.621 137.84 154.111 140.61L152.111 151.71H156.851C156.28 147.301 156.133 142.847 156.411 138.41C156.571 135.63 152.041 134.96 151.501 137.74L148.851 151.83L153.761 152.5C153.08 147.148 152.773 141.755 152.841 136.36H147.841C148.023 142.674 147.859 148.993 147.351 155.29H152.351L151.851 142.05C151.761 139.38 147.391 138.48 146.941 141.38L145.301 151.97H150.121C149.468 149.125 149.186 146.207 149.281 143.29C149.361 140.54 144.851 139.8 144.371 142.63C143.928 145.411 142.95 148.08 141.491 150.49L146.151 151.75C146.432 148.511 146.94 145.297 147.671 142.13L142.851 140.8L140.721 150.35L145.631 151.02C145.72 147.868 146.221 144.741 147.121 141.72L142.211 141.06C142.568 143.371 142.179 145.735 141.101 147.81L145.671 148.4C144.848 146.569 144.504 144.56 144.671 142.56C144.881 139.64 140.611 139.33 139.761 141.9C138.935 144.525 137.483 146.91 135.531 148.85C133.281 151.15 136.821 154.69 139.071 152.38C141.606 149.807 143.497 146.672 144.591 143.23L139.671 142.56C139.453 145.01 139.856 147.476 140.841 149.73C141.601 151.52 144.331 152.46 145.411 150.33C146.97 147.506 147.6 144.262 147.211 141.06C146.921 138.38 143.151 137.52 142.301 140.39C141.277 143.844 140.715 147.418 140.631 151.02C140.561 153.8 144.931 154.46 145.541 151.68L147.671 142.13C148.361 139 143.561 137.66 142.851 140.8C142.031 144.406 141.463 148.065 141.151 151.75C140.921 154.32 144.611 155.01 145.811 153.01C147.498 150.251 148.645 147.197 149.191 144.01L144.281 143.34C144.178 146.702 144.514 150.064 145.281 153.34C145.811 155.63 149.711 155.82 150.101 153.34L151.751 142.76L146.841 142.1L147.301 155.34C147.411 158.59 152.041 158.52 152.301 155.34C152.81 149.043 152.973 142.724 152.791 136.41C152.701 133.2 147.791 133.18 147.791 136.41C147.723 141.805 148.03 147.198 148.711 152.55C149.031 155.07 153.041 156.26 153.621 153.21L156.331 139.12L151.421 138.46C151.163 143.345 151.37 148.244 152.041 153.09C152.371 155.53 156.441 155.43 156.861 153.09L158.861 141.99L153.951 141.33L152.951 152.18H157.951C157.051 139.433 156.558 126.67 156.471 113.89C156.471 110.67 151.551 110.67 151.471 113.89L150.941 139.97H155.941C155.275 129.97 155.115 119.933 155.461 109.86C155.551 107.1 151.051 106.38 150.551 109.19C149.184 116.818 148.282 124.522 147.851 132.26H152.851L152.751 116.18C152.736 115.584 152.51 115.013 152.112 114.568C151.715 114.124 151.172 113.836 150.581 113.755C149.991 113.675 149.391 113.807 148.889 114.128C148.386 114.45 148.015 114.94 147.841 115.51C145.973 122.315 144.76 129.283 144.221 136.32H149.221C149.42 131.097 149.303 125.868 148.871 120.66C148.871 119.997 148.608 119.361 148.139 118.892C147.67 118.423 147.034 118.16 146.371 118.16C145.708 118.16 145.072 118.423 144.604 118.892C144.135 119.361 143.871 119.997 143.871 120.66L142.181 137.42H147.181L147.121 117.08C147.121 114.29 142.911 113.64 142.211 116.41C139.967 125.302 138.786 134.429 138.691 143.6C138.691 146.82 143.691 146.82 143.691 143.6C143.813 135.188 143.479 126.776 142.691 118.4C142.691 117.737 142.428 117.101 141.959 116.632C141.49 116.163 140.854 115.9 140.191 115.9C139.528 115.9 138.892 116.163 138.424 116.632C137.955 117.101 137.691 117.737 137.691 118.4L135.551 142.29H140.551C140.378 134.956 140.565 127.64 141.111 120.34H136.111C136.431 129.886 136.748 139.436 137.061 148.99C137.07 149.426 137.192 149.853 137.414 150.228C137.636 150.604 137.952 150.916 138.331 151.133C138.709 151.35 139.137 151.466 139.574 151.469C140.01 151.472 140.44 151.362 140.821 151.15L141.381 150.85C141.759 150.63 142.073 150.315 142.291 149.936C142.508 149.557 142.622 149.127 142.621 148.69C142.667 148.009 142.518 147.328 142.192 146.728C141.866 146.128 141.377 145.633 140.781 145.3C140.398 145.074 139.961 144.954 139.516 144.954C139.071 144.954 138.635 145.074 138.251 145.3C137.467 145.644 136.822 146.243 136.42 147C136.019 147.757 135.886 148.627 136.041 149.47L140.951 148.81L140.081 145.71C139.361 143.12 136.151 143.56 135.261 145.71L133.701 149.45L138.611 150.12L138.441 145.71C138.361 143.46 134.851 142.03 133.791 144.45L131.421 149.83L135.991 151.75C136.651 149.165 136.651 146.455 135.991 143.87C135.381 141.41 131.861 141.57 131.171 143.87C130.535 145.99 129.603 148.01 128.401 149.87L133.061 151.13L132.861 145.34C132.839 144.747 132.609 144.18 132.21 143.741C131.812 143.301 131.271 143.016 130.683 142.936C130.095 142.856 129.498 142.986 128.996 143.303C128.495 143.62 128.121 144.104 127.941 144.67L124.941 154.49L129.851 155.16V138.81H124.851V145.31C124.851 148.53 129.851 148.53 129.851 145.31V124.61H124.851C125.417 131.545 126.615 138.413 128.431 145.13C129.121 147.68 132.431 147.32 133.251 145.13C136.098 137.723 137.196 129.76 136.461 121.86C136.171 118.69 131.601 118.6 131.461 121.86L130.461 143.42H135.461C135.532 135.061 135.017 126.707 133.921 118.42C133.511 115.29 129.171 115.13 128.921 118.42C128.305 126.634 128.138 134.877 128.421 143.11H133.421C132.755 134.516 132.385 125.916 132.311 117.31C132.311 114.01 127.671 114.19 127.311 117.31C126.269 126.38 125.914 135.516 126.251 144.64C126.371 147.85 131.301 147.87 131.251 144.64C131.002 128.492 129.82 112.371 127.711 96.3598C127.311 93.2798 122.711 93.0398 122.711 96.3598L122.811 125.36C122.811 128.58 127.811 128.58 127.811 125.36C127.865 111.92 128.285 98.4931 129.071 85.0798H124.071L125.931 112.91C125.931 113.573 126.195 114.209 126.664 114.678C127.132 115.146 127.768 115.41 128.431 115.41C129.094 115.41 129.73 115.146 130.199 114.678C130.668 114.209 130.931 113.573 130.931 112.91C132.319 101.988 132.881 90.9764 132.611 79.9698C132.541 76.7398 127.791 76.7698 127.611 79.9698C127.007 91.091 127.422 102.244 128.851 113.29C128.851 113.953 129.115 114.589 129.584 115.058C130.052 115.526 130.688 115.79 131.351 115.79C132.014 115.79 132.65 115.526 133.119 115.058C133.588 114.589 133.851 113.953 133.851 113.29C134.546 104.639 134.599 95.9485 134.011 87.2898C133.801 84.0998 128.821 84.0698 129.011 87.2898C129.705 99.0861 131.697 110.77 134.951 122.13C135.112 122.645 135.433 123.094 135.867 123.414C136.302 123.733 136.827 123.906 137.366 123.906C137.906 123.906 138.431 123.733 138.865 123.414C139.3 123.094 139.621 122.645 139.781 122.13C143.307 111.367 145.115 100.116 145.141 88.7898H140.141C140.103 98.0603 141.62 107.272 144.631 116.04C144.781 116.565 145.096 117.027 145.531 117.357C145.966 117.687 146.496 117.867 147.041 117.87C151.481 117.48 152.201 113.54 152.411 109.68C152.785 102.259 152.588 94.8204 151.821 87.4298C151.821 86.7667 151.558 86.1308 151.089 85.662C150.62 85.1932 149.984 84.9298 149.321 84.9298C148.658 84.9298 148.022 85.1932 147.554 85.662C147.085 86.1308 146.821 86.7667 146.821 87.4298L144.091 117.43C143.791 120.65 148.761 120.6 149.091 117.43C150.091 107.29 150.091 96.0598 141.341 89.2898C139.931 88.1998 138.181 89.4698 137.671 90.7798C133.42 101.615 132.72 113.521 135.671 124.78C136.241 127.03 140.091 127.29 140.491 124.78C141.967 115.625 142.516 106.345 142.131 97.0798H137.131C137.595 104.754 138.937 112.351 141.131 119.72C141.781 121.89 145.561 122.3 145.951 119.72C147.142 111.909 147.76 104.021 147.801 96.1198C147.801 92.8998 142.801 92.8898 142.801 96.1198C142.745 103.518 143.796 110.883 145.921 117.97C146.771 120.78 150.581 120.06 150.831 117.31C151.696 107.709 153.587 98.228 156.471 89.0298H151.651C153.101 96.6071 153.438 104.355 152.651 112.03H157.651C156.791 95.7298 156.688 79.4231 157.341 63.1098H152.341L150.961 110.17H155.961C154.721 89.9498 153.601 69.6798 156.271 49.5298C156.651 46.6498 152.151 46.2798 151.361 48.8698C147.177 62.4571 145.394 76.6699 146.091 90.8698C146.091 91.5328 146.355 92.1687 146.824 92.6375C147.292 93.1064 147.928 93.3698 148.591 93.3698C149.254 93.3698 149.89 93.1064 150.359 92.6375C150.828 92.1687 151.091 91.5328 151.091 90.8698C151.556 80.1312 151.107 69.3725 149.751 58.7098C149.441 56.2198 145.331 54.9798 144.841 58.0398C143.013 69.5339 142.32 81.1799 142.771 92.8098C142.901 96.0098 147.701 96.0398 147.771 92.8098C147.993 82.1212 147.489 71.4299 146.261 60.8098C145.961 58.2498 141.981 57.1398 141.351 60.1398C138.942 71.5876 137.511 83.2195 137.071 94.9098H142.071C142.451 83.8298 142.345 72.7598 141.751 61.6998C141.751 61.0367 141.488 60.4008 141.019 59.932C140.55 59.4632 139.914 59.1998 139.251 59.1998C138.588 59.1998 137.952 59.4632 137.484 59.932C137.015 60.4008 136.751 61.0367 136.751 61.6998L133.441 93.9698H138.441C139.108 81.1098 139.238 68.2431 138.831 55.3698C138.731 52.6998 134.311 51.7898 133.911 54.6998C132.171 67.5598 130.838 80.4631 129.911 93.4098H134.911C135.091 80.9031 134.998 68.3998 134.631 55.8998C134.531 52.6098 129.981 52.7598 129.631 55.8998C128.06 70.1116 127.302 84.4015 127.361 98.6998C127.361 102.01 131.981 101.8 132.361 98.6998C134.813 78.8096 134.429 58.6721 131.221 38.8898C130.751 35.9698 126.481 36.8898 126.311 39.5598L123.311 85.8598C123.101 89.0698 128.091 89.0498 128.311 85.8598C129.461 69.0457 129.561 52.1763 128.611 35.3498C128.431 32.1598 123.611 32.1098 123.611 35.3498L123.401 56.2198C123.401 58.9498 127.921 59.7398 128.311 56.8898L131.401 34.1998L126.491 33.5398L127.581 55.9598C127.581 56.6228 127.845 57.2587 128.314 57.7275C128.782 58.1964 129.418 58.4598 130.081 58.4598C130.744 58.4598 131.38 58.1964 131.849 57.7275C132.318 57.2587 132.581 56.6228 132.581 55.9598L134.641 31.9598H129.641L130.281 56.8998C130.351 59.6098 134.621 60.4298 135.191 57.5698C136.798 49.6189 137.689 41.5398 137.851 33.4298H132.851L135.151 56.7698C135.411 59.3198 139.611 60.4498 140.071 57.4298C141.462 48.2515 142.171 38.9828 142.191 29.6998C142.191 26.4698 137.361 26.5098 137.191 29.6998C136.659 39.267 136.994 48.8628 138.191 58.3698C138.581 61.4698 143.121 61.6798 143.191 58.3698L143.851 27.4198H138.851C138.865 37.9435 139.978 48.4371 142.171 58.7298C142.661 61.0198 146.661 61.1998 147.001 58.7298C148.305 49.3645 148.907 39.9148 148.801 30.4598C148.751 27.2298 143.931 27.2498 143.801 30.4598C143.403 40.1338 143.677 49.8237 144.621 59.4598C144.621 60.1228 144.885 60.7587 145.354 61.2275C145.822 61.6964 146.458 61.9598 147.121 61.9598C147.784 61.9598 148.42 61.6964 148.889 61.2275C149.358 60.7587 149.621 60.1228 149.621 59.4598L152.851 26.0598H147.851L149.161 56.2998C149.161 56.9628 149.425 57.5987 149.894 58.0675C150.362 58.5364 150.998 58.7998 151.661 58.7998C152.324 58.7998 152.96 58.5364 153.429 58.0675C153.898 57.5987 154.161 56.9628 154.161 56.2998C154.918 46.1852 155.135 36.0375 154.811 25.8998C154.811 25.2367 154.548 24.6008 154.079 24.132C153.61 23.6632 152.974 23.3998 152.311 23.3998C151.648 23.3998 151.012 23.6632 150.544 24.132C150.075 24.6008 149.811 25.2367 149.811 25.8998L149.331 38.6198H154.331L154.391 23.8498C154.391 20.9298 150.391 20.5798 149.481 23.1798L145.481 34.6698L150.391 35.3398L149.941 24.2698C149.841 21.8898 146.511 20.7298 145.281 22.9998L141.281 30.4098L145.851 32.3398L148.251 25.1498C149.021 22.8498 145.681 20.7898 144.081 22.7098C142.081 25.1454 139.795 27.3312 137.271 29.2198L140.691 32.6398L144.521 25.0198C144.793 24.4956 144.871 23.8925 144.742 23.3164C144.613 22.7404 144.285 22.2283 143.816 21.8701C143.346 21.5119 142.766 21.3305 142.176 21.3579C141.587 21.3853 141.025 21.6196 140.591 22.0198L133.381 28.1498L137.301 31.1498L142.031 24.0798C143.371 22.0798 140.631 19.1598 138.611 20.6598L126.851 29.4998L130.221 32.9698L134.961 25.6398C136.581 23.1398 133.081 20.8298 131.031 22.6398L123.531 29.1498L127.711 31.5898C128.26 29.6599 129.422 27.9609 131.021 26.7498L127.481 23.2098L123.571 26.9698L127.851 28.6898C127.692 26.9187 128.072 25.1408 128.941 23.5898C129.277 23.0169 129.371 22.3342 129.203 21.6919C129.035 21.0496 128.619 20.5003 128.046 20.1648C127.473 19.8293 126.791 19.7351 126.148 19.9029C125.506 20.0708 124.957 20.4869 124.621 21.0598L122.731 23.7398C121.021 26.1698 124.641 28.5698 126.661 26.7398L129.021 25.4598C132.101 24.5498 130.791 19.7198 127.691 20.6398L127.681 20.6698Z" fill="#FFB294"/>
<path d="M152.751 133.85V133.38C152.737 132.836 152.551 132.31 152.221 131.877C151.891 131.445 151.432 131.127 150.911 130.97L150.391 130.76C149.966 130.642 149.517 130.64 149.09 130.752C148.663 130.865 148.274 131.088 147.961 131.4C144.861 133.85 143.961 141.4 143.021 144.94L147.851 146.27C147.98 144.896 148.532 143.596 149.431 142.55L145.171 140.78C145.182 141.88 144.931 142.967 144.439 143.951C143.947 144.935 143.228 145.788 142.341 146.44L146.521 147.54L146.271 145.45C146.981 142.32 142.221 140.99 141.451 144.12C140.965 146.446 139.6 148.495 137.641 149.84C137.132 150.155 136.751 150.641 136.569 151.212C136.387 151.783 136.415 152.4 136.648 152.952C136.881 153.504 137.304 153.954 137.84 154.221C138.376 154.489 138.99 154.556 139.571 154.41L145.131 153.25L143.851 148.43L134.011 150.58C131.311 151.16 131.861 155.86 134.681 155.49L136.751 155.83L137.851 151.65C137.277 151.998 136.593 152.115 135.936 151.977C135.278 151.84 134.698 151.459 134.311 150.91C134.87 149.943 135.364 148.941 135.791 147.91C136.541 146.207 137.133 144.44 137.561 142.63C138.453 138.605 138.79 134.476 138.561 130.36C138.141 120.36 135.241 110.67 134.741 100.68C134.741 100.017 134.478 99.3808 134.009 98.912C133.54 98.4431 132.904 98.1797 132.241 98.1797C131.578 98.1797 130.942 98.4431 130.474 98.912C130.005 99.3808 129.741 100.017 129.741 100.68C129.403 106.454 129.36 112.241 129.611 118.02C129.731 120.68 134.051 121.6 134.521 118.68C135.988 109.746 136.883 100.728 137.201 91.6797H132.201L133.381 105.2C133.571 107.38 136.941 108.97 138.041 106.46C138.791 105.009 139.142 103.385 139.058 101.755C138.973 100.124 138.457 98.5452 137.561 97.1797C135.871 94.4497 131.561 96.9597 133.241 99.7097L133.721 103.94L138.381 105.2L137.201 91.6797C136.931 88.5097 132.321 88.4097 132.201 91.6797C131.914 100.291 131.079 108.875 129.701 117.38L134.611 118.04C134.36 112.261 134.403 106.474 134.741 100.7H129.741C130.411 114.15 135.831 127.87 132.741 141.32C131.901 144.96 127.641 149.78 129.351 153.64C131.061 157.5 135.651 157.36 139.181 156.45C140.861 156.01 141.781 153.45 140.281 152.27C138.461 150.81 137.091 150.15 134.681 150.47L135.341 155.38L145.181 153.23C148.331 152.55 146.991 147.76 143.851 148.41L138.291 149.57L140.211 154.14C143.304 152.142 145.495 149.017 146.321 145.43L141.501 144.1C141.067 145.668 141.155 147.335 141.751 148.85C141.878 149.264 142.108 149.639 142.42 149.939C142.732 150.24 143.116 150.455 143.535 150.565C143.953 150.676 144.394 150.677 144.813 150.569C145.233 150.461 145.617 150.248 145.931 149.95C147.314 148.859 148.421 147.459 149.166 145.864C149.911 144.268 150.273 142.52 150.221 140.76C150.221 138.76 147.341 137.23 145.951 138.99C144.483 140.698 143.484 142.759 143.051 144.97C142.421 148.09 147.051 149.44 147.871 146.3C148.501 143.94 149.541 136.54 151.531 134.96L149.091 135.61L149.611 135.82L147.781 133.41V133.88C147.651 137.1 152.651 137.09 152.781 133.88L152.751 133.85Z" fill="#FFB294"/>
<path d="M166.851 122.73C172.007 121.691 177.252 121.158 182.511 121.14C185.721 121.14 185.731 116.14 182.511 116.14C176.8 116.172 171.107 116.765 165.511 117.91C162.361 118.55 163.701 123.37 166.841 122.73H166.851Z" fill="#FFB294"/>
<path d="M181.991 122.31H176.371C173.151 122.31 173.151 127.31 176.371 127.31H181.991C185.201 127.31 185.211 122.31 181.991 122.31Z" fill="#FFB294"/>
<path d="M178.971 128.9L178.461 134.01C178.461 134.673 178.725 135.309 179.194 135.778C179.662 136.246 180.298 136.51 180.961 136.51C181.624 136.51 182.26 136.246 182.729 135.778C183.198 135.309 183.461 134.673 183.461 134.01L183.971 128.9C183.969 128.238 183.704 127.603 183.236 127.135C182.768 126.667 182.134 126.402 181.471 126.4C180.813 126.415 180.186 126.683 179.72 127.149C179.255 127.614 178.987 128.242 178.971 128.9Z" fill="#FFB294"/>
<path d="M179.221 128.28C178.872 129.447 178.217 130.499 177.324 131.328C176.431 132.156 175.332 132.73 174.141 132.99C171.021 133.75 172.341 138.57 175.471 137.81C177.493 137.31 179.348 136.291 180.853 134.852C182.359 133.414 183.461 131.606 184.051 129.61C184.971 126.52 180.151 125.2 179.221 128.28Z" fill="#FFB294"/>
<path d="M182.421 144.73L183.261 144.27C183.901 144.092 184.444 143.668 184.772 143.091C185.1 142.514 185.186 141.83 185.011 141.19C183.771 138.19 181.311 136.19 177.931 136.59L180.341 139.76C180.826 138.598 181.451 137.5 182.201 136.49L177.631 134.57C177.211 136.57 177.041 138.73 178.541 140.39C179.178 141.095 180.048 141.546 180.991 141.66C181.668 141.651 182.34 141.553 182.991 141.37L181.501 140.22C181.071 139.5 181.501 141.44 181.501 141.8V144.8C181.501 145.61 181.501 146.42 181.501 147.23C181.501 147.8 181.151 149.48 181.741 149.23C178.811 150.44 180.091 155.23 183.071 154.05C187.561 152.19 186.501 147.05 186.471 142.97C186.471 141.22 186.871 138.85 185.601 137.41C184.101 135.71 182.731 136.85 180.931 136.62L182.701 137.36C182.075 137.04 181.975 136.54 182.401 135.86C182.518 135.289 182.432 134.696 182.159 134.182C181.886 133.668 181.442 133.264 180.905 133.041C180.367 132.818 179.768 132.788 179.211 132.958C178.654 133.127 178.174 133.485 177.851 133.97C176.887 135.357 176.091 136.854 175.481 138.43C175.382 138.801 175.369 139.189 175.443 139.566C175.518 139.942 175.677 140.297 175.91 140.602C176.143 140.907 176.442 141.155 176.786 141.326C177.129 141.497 177.508 141.588 177.891 141.59C178.315 141.442 178.779 141.455 179.193 141.626C179.608 141.798 179.946 142.116 180.141 142.52L181.891 139.45C179.081 139.97 177.691 142.02 177.381 144.73C177.011 147.92 182.011 147.89 182.381 144.73H182.421Z" fill="#FFB294"/>
<path d="M157.641 118.69C157.875 132.33 158.451 145.95 159.371 159.55C159.581 162.75 164.581 162.77 164.371 159.55C163.451 145.95 162.875 132.33 162.641 118.69C162.641 115.48 157.641 115.47 157.641 118.69Z" fill="#FFB294"/>
<path d="M121.711 115.62C121.711 125.166 122.158 134.693 123.051 144.2C123.341 147.37 128.351 147.4 128.051 144.2C127.151 134.693 126.705 125.166 126.711 115.62C126.711 112.41 121.711 112.4 121.711 115.62Z" fill="#FFB294"/>
<path d="M67.6214 118.85L119.691 115.55C122.881 115.35 122.901 110.34 119.691 110.55L67.6214 113.85C64.4214 114.05 64.4014 119.05 67.6214 118.85Z" fill="#FFB294"/>
<path d="M49.1713 58.4198C47.3113 61.8998 45.8213 66.2898 47.0713 70.2298C47.5707 71.8536 48.6524 73.2356 50.1087 74.1105C51.565 74.9854 53.2931 75.2914 54.9613 74.9698C58.1213 74.4398 56.7813 69.6198 53.6313 70.1498C51.7813 70.4498 51.5613 67.6198 51.6313 66.4398C51.8799 64.5105 52.5124 62.6506 53.4913 60.9698C55.0113 58.1398 50.7013 55.6098 49.1713 58.4498V58.4198Z" fill="#FFB294"/>
<path d="M92.7513 48.5698C93.6113 50.7298 94.3313 54.6298 96.8213 55.5698C99.3113 56.5098 101.201 54.4598 102.161 52.3798C102.342 52.0464 102.447 51.6769 102.468 51.298C102.489 50.9191 102.425 50.5403 102.282 50.1891C102.138 49.8378 101.918 49.5229 101.638 49.2671C101.358 49.0112 101.024 48.8209 100.661 48.7098C98.2283 47.6814 95.5012 47.5883 93.0038 48.4485C90.5064 49.3086 88.415 51.0613 87.1313 53.3698C85.861 55.8762 85.3336 58.6936 85.6113 61.4898C86.1313 64.7798 89.3613 66.4898 91.7713 68.3798C92.0852 68.6783 92.4701 68.8915 92.8896 68.9993C93.3091 69.1071 93.7492 69.1058 94.1681 68.9956C94.5869 68.8853 94.9707 68.6698 95.2828 68.3695C95.5949 68.0692 95.825 67.6941 95.9513 67.2798C96.817 65.0454 97.2148 62.6571 97.1202 60.2627C97.0256 57.8684 96.4406 55.5189 95.4013 53.3598C94.3313 50.9498 90.8113 52.3598 90.7413 54.6198C90.6113 58.9798 88.0313 73.4298 96.4813 72.6198C97.5763 72.4923 98.5985 72.0064 99.3889 71.2378C100.179 70.4691 100.693 69.4609 100.851 68.3698C101.171 65.0998 98.5213 63.5698 95.7613 63.2098C93.6813 62.9298 92.3613 66.2098 93.9913 67.4698L99.1913 71.5998C99.6253 71.9999 100.186 72.2343 100.776 72.2616C101.366 72.289 101.946 72.1077 102.416 71.7495C102.885 71.3913 103.213 70.8792 103.342 70.3031C103.471 69.7271 103.393 69.124 103.121 68.5998L102.371 65.3798L97.7113 66.6398C99.2513 69.5498 101.251 72.9198 97.7113 75.1198C95.2913 76.6198 91.1113 77.7698 89.8813 73.9998C89.7236 73.4836 89.4043 73.0317 88.9704 72.7106C88.5365 72.3895 88.0111 72.2162 87.4713 72.2162C86.9315 72.2162 86.4061 72.3895 85.9722 72.7106C85.5383 73.0317 85.219 73.4836 85.0613 73.9998C82.1213 83.6298 102.461 85.8898 103.311 74.9998C103.461 72.9998 101.091 71.9998 99.5513 72.8398C97.4113 74.0598 95.0613 75.5298 93.8813 77.8398C92.4713 80.5498 93.8813 82.7598 93.6113 85.5698L97.8813 83.7998L96.6313 82.6998L97.2813 85.1298C98.3796 79.901 98.8529 74.5602 98.6913 69.2198C98.5913 66.0098 93.5913 65.9898 93.6913 69.2198C93.8691 74.112 93.4527 79.0078 92.4513 83.7998C92.3373 84.2263 92.3373 84.6752 92.4514 85.1017C92.5655 85.5282 92.7896 85.9172 93.1013 86.2298L94.3513 87.3298C94.7059 87.6626 95.149 87.8862 95.6274 87.9737C96.1058 88.0613 96.5993 88.009 97.0488 87.8233C97.4983 87.6376 97.8847 87.3263 98.1618 86.9266C98.439 86.5269 98.595 86.0559 98.6113 85.5698C99.0013 81.7298 98.0113 79.5198 102.071 77.1998L98.2913 74.9698C97.9613 79.1198 89.4213 76.7198 89.8613 75.2798H85.0413C86.9313 81.0798 93.0413 82.7398 98.3613 80.3698C100.831 79.2598 104.221 77.1198 105.001 74.3698C105.921 71.0898 103.521 66.9298 102.001 64.1098C100.861 61.9598 97.2013 62.8998 97.3413 65.3798C97.4767 67.3619 97.9892 69.2999 98.8513 71.0898L102.781 68.0898L97.5313 63.9698L95.7613 68.2398C94.9013 68.1198 95.7613 55.5598 95.7613 54.6498L91.1013 55.9198C91.7911 57.507 92.147 59.2192 92.147 60.9498C92.147 62.6804 91.7911 64.3926 91.1013 65.9798L95.2813 64.8798C92.4513 62.6298 89.8813 61.0598 91.0813 56.8798C92.1613 53.1498 96.0813 52.1598 99.3013 53.4998L97.8513 49.8398L97.5013 50.6398L99.6513 51.8798C98.8199 50.4001 98.127 48.8469 97.5813 47.2398C96.4013 44.2398 91.5813 45.5698 92.7613 48.5698H92.7513Z" fill="#FFB294"/>
<path d="M157.261 32.3698C156.911 38.3698 156.351 44.2598 155.541 50.1698C155.111 53.3197 159.931 54.6798 160.361 51.4998C161.231 45.1498 161.881 38.7798 162.261 32.3698C162.461 29.1598 157.461 29.1698 157.261 32.3698Z" fill="#FFB294"/>
<path d="M119.651 76.7997C118.418 88.5197 117.725 100.27 117.571 112.05C117.571 115.27 122.571 115.27 122.571 112.05C122.731 100.27 123.425 88.5197 124.651 76.7997C124.981 73.6097 119.981 73.6297 119.651 76.7997Z" fill="#FFB294"/>
<path d="M185.191 130.23C185.631 130.03 185.961 130.66 186.031 131.13C186.756 137.047 186.997 143.013 186.751 148.97C186.701 152.29 186.511 155.97 184.201 158.35C181.601 161.03 177.371 161.03 173.631 160.85L168.111 160.58C166.603 160.558 165.101 160.374 163.631 160.03C160.883 159.119 158.431 157.485 156.531 155.3C156.201 154.89 157.331 154.81 157.251 155.3C157.171 155.79 156.521 155.98 156.001 156.03C147.689 156.758 139.339 156.958 131.001 156.63C128.92 156.452 126.825 156.526 124.761 156.85C123.151 157.267 121.565 157.775 120.011 158.37C107.451 162.45 93.8214 156.87 80.6714 158.02C75.1014 158.51 69.6714 160.2 64.1114 160.58C55.6114 161.16 47.2314 158.66 38.7614 157.75C32.9661 157.202 27.1342 157.158 21.3314 157.62C16.9814 157.92 12.2014 158.25 8.69136 155.62C4.30136 152.38 3.84136 146.12 3.77136 140.67L3.30136 103.97L2.99136 80.6298C2.81136 66.5198 2.63136 52.4098 3.26136 38.3098C3.60136 30.6598 4.26136 22.7598 7.90136 16.0398C10.5652 16.9893 13.4577 17.0906 16.1814 16.3298C17.8514 11.1498 22.2514 7.05975 27.3614 4.96975C32.4714 2.87976 38.1814 2.64975 43.6514 3.36975C40.8514 5.96975 42.0514 11.0298 45.1314 13.2998C48.2114 15.5698 52.3214 15.7798 56.1314 15.7698C78.9614 15.7698 102.591 11.3798 124.131 19.0098C132.321 21.9198 140.901 19.8198 149.581 20.1798C151.955 20.393 154.347 20.2582 156.681 19.7798C158.511 19.3198 160.211 18.4298 162.011 17.8698C166.321 16.5298 171.011 17.0798 175.441 17.6398C178.441 18.0198 181.741 18.5698 183.611 20.9298C185.481 23.2898 185.301 26.2698 185.161 29.0998C184.731 37.7498 184.481 46.4098 184.611 55.0998C184.991 80.5098 189.221 105.1 185.191 130.23Z" stroke="#231F20" stroke-width="5" stroke-linejoin="round"/>
<path d="M124.091 19.9697C122.138 65.2497 122.338 110.553 124.691 155.88" stroke="#231F20" stroke-width="2" stroke-linejoin="round"/>
<path d="M159.121 156.26L157.451 90.0798L156.691 60.0798C156.411 48.8998 156.131 37.7098 156.881 26.5598C157.101 23.2498 156.931 19.0698 153.881 17.7498" stroke="#231F20" stroke-width="2" stroke-linejoin="round"/>
<path d="M122.391 115.33C132.351 115.136 142.308 115.283 152.261 115.77" stroke="#231F20" stroke-width="2" stroke-linejoin="round"/>
<path d="M130.251 148.46C132.01 150.698 133.639 153.035 135.131 155.46" stroke="#231F20" stroke-width="2" stroke-linejoin="round"/>
<path d="M141.581 148.97C141.39 150.635 141.444 152.32 141.741 153.97" stroke="#231F20" stroke-width="2" stroke-linejoin="round"/>
<path d="M151.961 149.02L150.681 155.12" stroke="#231F20" stroke-width="2" stroke-linejoin="round"/>
<path d="M146.461 149.38C146.067 152.044 145.966 154.744 146.161 157.43" stroke="#231F20" stroke-width="2" stroke-linejoin="round"/>
<path d="M131.141 116.4C129.551 118.32 128.394 120.561 127.751 122.97" stroke="#231F20" stroke-width="2" stroke-linejoin="round"/>
<path d="M136.941 115.69V121.81" stroke="#231F20" stroke-width="2" stroke-linejoin="round"/>
<path d="M142.691 116.84L142.231 121.42" stroke="#231F20" stroke-width="2" stroke-linejoin="round"/>
<path d="M147.631 115.3C147.691 112.581 148.073 109.878 148.771 107.25" stroke="#231F20" stroke-width="2" stroke-linejoin="round"/>
<path d="M138.271 114.82C138.404 114.498 138.466 114.151 138.452 113.803C138.439 113.455 138.351 113.114 138.195 112.803C138.038 112.492 137.817 112.218 137.545 112C137.274 111.782 136.959 111.625 136.621 111.54" stroke="#231F20" stroke-width="2" stroke-linejoin="round"/>
<path d="M129.851 114.19L128.691 109.19C128.477 109.217 128.275 109.305 128.108 109.443C127.942 109.581 127.818 109.764 127.751 109.97" stroke="#231F20" stroke-width="2" stroke-linejoin="round"/>
<path d="M132.041 21.1198C131.143 23.3484 130.094 25.5134 128.901 27.5998" stroke="#231F20" stroke-width="2" stroke-linejoin="round"/>
<path d="M135.761 22.3198L134.131 29.0298L134.261 27.9798" stroke="#231F20" stroke-width="2" stroke-linejoin="round"/>
<path d="M142.301 21.8597V25.6897" stroke="#231F20" stroke-width="2" stroke-linejoin="round"/>
<path d="M149.451 21.4897L150.231 29.4897" stroke="#231F20" stroke-width="2" stroke-linejoin="round"/>
<path d="M141.171 47.1298C140.981 57.5998 136.901 67.9298 138.311 78.3098" stroke="#231F20" stroke-width="2" stroke-linejoin="round"/>
<path d="M145.661 62.4398C143.981 71.0664 142.625 79.7531 141.591 88.4998" stroke="#231F20" stroke-width="2" stroke-linejoin="round"/>
<path d="M139.031 133.21C139.734 134.529 140.052 136.019 139.951 137.51" stroke="#231F20" stroke-width="2" stroke-linejoin="round"/>
<path d="M143.441 134.13C144.532 134.415 145.505 135.038 146.221 135.91" stroke="#231F20" stroke-width="2" stroke-linejoin="round"/>
<path d="M144.211 126.4C145.386 125.747 146.745 125.508 148.071 125.72C147.503 126.201 146.843 126.562 146.131 126.78" stroke="#231F20" stroke-width="2" stroke-linejoin="round"/>
<path d="M16.8513 15.6697C13.0113 28.3897 11.9513 41.7697 11.4713 55.0497C10.9113 70.9297 11.3913 87.7197 19.6013 101.33C22.0213 105.33 25.1713 109.05 29.3213 111.22C33.3213 113.29 37.8113 113.82 42.2513 114.22C69.1847 116.816 96.3007 116.91 123.251 114.5" stroke="#231F20" stroke-width="2" stroke-linejoin="round"/>
<path d="M41.9514 3.50977C38.6814 5.88977 37.5814 10.1898 36.8114 14.1598C31.4207 42.3353 31.9622 71.3252 38.4014 99.2798L40.8114 98.8398C35.7614 101.58 30.4214 107.31 31.0114 113.03" stroke="#231F20" stroke-width="2" stroke-linejoin="round"/>
<path d="M157.241 115.62C167.105 115.707 176.965 115.173 186.761 114.02C186.531 113.86 186.251 113.788 185.972 113.817C185.693 113.847 185.433 113.975 185.241 114.18" stroke="#231F20" stroke-width="2" stroke-linejoin="round"/>
<path d="M3.98132 111.97C9.86074 113.959 15.9985 115.08 22.2013 115.3C25.3813 115.41 28.5713 115.3 31.7513 115.16L42.3313 114.74" stroke="#231F20" stroke-width="2" stroke-linejoin="round"/>
<path d="M45.4114 122.17C65.9969 124.412 86.719 125.144 107.411 124.36" stroke="#231F20" stroke-width="2" stroke-linejoin="round"/>
<path d="M89.0514 131.53C96.4397 130.823 103.871 130.676 111.281 131.09" stroke="#231F20" stroke-width="2" stroke-linejoin="round"/>
<path d="M16.3113 129.97C27.4113 129.476 38.5179 129.373 49.6313 129.66" stroke="#231F20" stroke-width="2" stroke-linejoin="round"/>
<path d="M17.4613 123.41C24.2814 122.659 31.1737 122.881 37.9313 124.07C38.6313 124.19 39.5413 124.63 39.3313 125.32" stroke="#231F20" stroke-width="2" stroke-linejoin="round"/>
<path d="M26.3213 138.03L103.411 143.51C103.931 143.51 104.571 143.68 104.701 144.18C104.831 144.68 103.781 144.89 103.921 144.39" stroke="#231F20" stroke-width="2" stroke-linejoin="round"/>
<path d="M57.3014 134.21C63.5199 133.436 69.8124 133.473 76.0214 134.32C77.8414 134.56 79.8114 134.97 81.0214 136.32" stroke="#231F20" stroke-width="2" stroke-linejoin="round"/>
<path d="M105.161 135.97C110.534 136.209 115.917 135.951 121.241 135.2" stroke="#231F20" stroke-width="2" stroke-linejoin="round"/>
<path d="M124.291 124.19L116.131 123.5C115.901 123.5 115.601 123.5 115.511 123.71C115.421 123.92 115.881 124.08 115.841 123.85" stroke="#231F20" stroke-width="2" stroke-linejoin="round"/>
<path d="M158.011 131.43L173.481 131.84L169.111 131.47" stroke="#231F20" stroke-width="2" stroke-linejoin="round"/>
<path d="M157.241 124.52C162.721 124.19 168.241 124.05 173.711 124.1" stroke="#231F20" stroke-width="2" stroke-linejoin="round"/>
<path d="M184.381 121.77C182.141 121.399 179.842 121.699 177.771 122.63" stroke="#231F20" stroke-width="2" stroke-linejoin="round"/>
<path d="M182.131 130.65C180.267 130.324 178.349 130.725 176.771 131.77" stroke="#231F20" stroke-width="2" stroke-linejoin="round"/>
<path d="M186.341 140.12L167.561 142.71" stroke="#231F20" stroke-width="2" stroke-linejoin="round"/>
<path d="M185.191 148.97L170.721 149.45C170.351 149.45 169.891 149.55 169.801 149.9C169.711 150.25 170.481 150.36 170.331 150.02" stroke="#231F20" stroke-width="2" stroke-linejoin="round"/>
<path d="M67.6414 149.74C86.6414 149.006 105.611 147.673 124.551 145.74L120.851 146.82" stroke="#231F20" stroke-width="2" stroke-linejoin="round"/>
<path d="M37.3713 146.67L55.7513 146.26" stroke="#231F20" stroke-width="2" stroke-linejoin="round"/>
<path d="M18.9813 147.07C21.7211 146.302 24.581 146.058 27.4113 146.35" stroke="#231F20" stroke-width="2" stroke-linejoin="round"/>
<path d="M4.4314 136.26L19.3714 136.45" stroke="#231F20" stroke-width="2" stroke-linejoin="round"/>
<path d="M2.91138 126.44C5.30028 125.92 7.73659 125.648 10.1814 125.63" stroke="#231F20" stroke-width="2" stroke-linejoin="round"/>
<path d="M4.45129 119.34C6.19129 119.89 8.06129 119.34 9.87129 119.15C11.6813 118.96 13.8213 119.15 14.8713 120.66" stroke="#231F20" stroke-width="2" stroke-linejoin="round"/>
<path d="M4.42139 151.76C19.2214 151.093 34.0347 150.846 48.8614 151.02" stroke="#231F20" stroke-width="2" stroke-linejoin="round"/>
<path d="M35.4814 22.6198C35.1014 25.4098 37.2014 28.0597 39.7614 29.2497C42.3214 30.4397 45.2314 30.4898 48.0414 30.5098L122.771 31.2998" stroke="#231F20" stroke-width="2" stroke-linejoin="round"/>
<path d="M156.101 30.6398C159.795 30.7664 163.494 30.703 167.181 30.4498C167.287 31.117 167.543 31.7516 167.929 32.3058C168.315 32.8601 168.822 33.3196 169.411 33.6498C170.261 34.1198 171.331 34.3598 171.821 35.1998C172.086 35.7852 172.183 36.4325 172.101 37.0698C171.228 56.8498 170.915 76.6431 171.161 96.4498C169.955 96.7671 168.88 97.4607 168.095 98.4299C167.309 99.3991 166.852 100.594 166.791 101.84L157.621 101.9" stroke="#231F20" stroke-width="2" stroke-linejoin="round"/>
<path d="M36.2013 101.56C46.0013 99.9397 56.0113 100.32 65.9313 100.72L121.851 102.97L119.691 102.29" stroke="#231F20" stroke-width="2" stroke-linejoin="round"/>
<path d="M51.2313 59.2998C49.7113 58.8598 48.3713 60.5198 48.0413 62.0698C47.7764 63.318 47.8643 64.6154 48.2953 65.8164C48.7263 67.0175 49.4832 68.0748 50.4813 68.8698C51.502 69.6373 52.7443 70.0523 54.0213 70.0523C55.2983 70.0523 56.5407 69.6373 57.5613 68.8698C58.5455 68.0408 59.1866 66.8758 59.3603 65.6008C59.534 64.3258 59.2279 63.0318 58.5013 61.9698C57.6919 60.9836 56.621 60.2454 55.4113 59.8398C53.7277 59.1316 51.8568 59.0015 50.0913 59.4698C49.214 59.7144 48.4174 60.1877 47.7831 60.8414C47.1487 61.495 46.6995 62.3055 46.4813 63.1898C46.3039 64.0801 46.4528 65.0045 46.9009 65.794C47.3489 66.5835 48.0661 67.1855 48.9213 67.4898" stroke="#231F20" stroke-width="2" stroke-linejoin="round"/>
<path d="M72.6013 61.3998C72.2413 68.6898 74.3014 75.8898 77.0114 82.6698C78.1214 85.4698 79.4113 88.2998 81.6013 90.3698C85.4013 93.9498 91.1414 94.5198 96.3514 94.0998C98.8349 94.0216 101.27 93.3931 103.481 92.2598C106.131 90.7298 107.931 88.0798 109.481 85.4298C113.701 78.0698 116.601 69.6998 116.151 61.2298C115.701 52.7598 111.491 44.2298 104.151 39.9298C88.6614 30.8898 73.3513 46.0898 72.6013 61.3998Z" stroke="#231F20" stroke-width="2" stroke-linejoin="round"/>
<path d="M93.2813 43.7998C93.7321 43.3564 94.339 43.1079 94.9713 43.1079C95.6036 43.1079 96.2105 43.3564 96.6613 43.7998C97.1413 44.3998 97.1913 45.2498 97.6613 45.8798C98.0213 46.3186 98.4585 46.688 98.9513 46.9698C101.534 48.6805 103.497 51.1769 104.551 54.0898C104.667 54.3032 104.727 54.5421 104.727 54.7848C104.727 55.0275 104.667 55.2663 104.551 55.4798C104.313 55.7169 104.004 55.8712 103.671 55.9198L99.3613 56.9698C99.3456 56.1846 99.0226 55.4368 98.4617 54.8871C97.9008 54.3374 97.1467 54.0296 96.3613 54.0298L96.8613 61.5998C98.5735 61.7457 100.221 62.3206 101.653 63.2713C103.084 64.2221 104.253 65.5181 105.051 67.0398C105.829 68.5818 106.265 70.2735 106.328 71.9994C106.392 73.7252 106.083 75.4445 105.421 77.0398C104.271 79.8598 101.611 82.4398 98.5913 82.0398C98.3702 81.9706 98.1373 81.9473 97.9068 81.9714C97.6764 81.9954 97.4533 82.0664 97.2513 82.1798C97.0018 82.4525 96.8659 82.8102 96.8713 83.1798L96.3213 87.7698C95.4275 87.6584 94.5625 87.3802 93.7713 86.9498L93.6713 82.8598C92.6893 83.0217 91.6829 82.9494 90.7341 82.6488C89.7853 82.3482 88.9209 81.8277 88.2113 81.1298C86.7927 79.6997 85.6532 78.0176 84.8513 76.1698C84.5434 75.7129 84.3392 75.1942 84.2528 74.6501C84.1664 74.106 84.2 73.5495 84.3513 73.0198C85.1613 71.2198 87.9813 71.7498 89.3513 73.1298C90.7213 74.5098 91.7813 76.4798 93.6513 77.1298L93.2713 68.5898C91.9487 68.3892 90.6903 67.8859 89.5941 67.1193C88.4979 66.3526 87.5935 65.3432 86.9513 64.1698C85.6867 61.7991 85.0758 59.1346 85.1813 56.4498C85.1813 53.3898 86.3013 49.7498 89.2613 48.9398C92.4813 48.0598 91.1813 45.7398 93.2813 43.7998Z" stroke="#231F20" stroke-width="2" stroke-linejoin="round"/>
<path d="M91.3514 53.2598C90.6472 55.0338 90.3764 56.9501 90.5614 58.8498C90.6514 59.7698 91.0614 60.8498 91.9914 60.9698C92.9214 61.0898 93.5614 59.8098 93.6414 58.8098C93.7767 57.101 93.397 55.3908 92.5514 53.8998C92.4414 53.6998 92.2414 53.4698 92.0214 53.5398C91.8014 53.6098 92.0214 54.0498 92.1514 53.8398" stroke="#231F20" stroke-width="2" stroke-linejoin="round"/>
<path d="M96.7514 68.9697C96.6466 71.303 96.68 73.6404 96.8514 75.9697C97.5812 75.7414 98.2215 75.2908 98.6828 74.6808C99.1441 74.0708 99.4033 73.332 99.4242 72.5676C99.4451 71.8031 99.2267 71.0512 98.7995 70.4169C98.3723 69.7826 97.7576 69.2976 97.0414 69.0297" stroke="#231F20" stroke-width="2" stroke-linejoin="round"/>
<path d="M62.5013 107.45L65.0513 106.45" stroke="black" stroke-width="2" stroke-linejoin="bevel"/>
<path d="M53.8514 88.0497L53.3014 84.9697" stroke="black" stroke-width="2" stroke-linejoin="bevel"/>
<path d="M65.5613 84.9697L66.0713 85.4897" stroke="black" stroke-width="2" stroke-linejoin="bevel"/>
<path d="M65.5614 35.4497L65.0514 34.9697" stroke="black" stroke-width="2" stroke-linejoin="bevel"/>
<path d="M22.0613 38.4798C22.142 38.1785 22.1529 37.8629 22.0931 37.5568C22.0333 37.2507 21.9045 36.9623 21.7165 36.7135C21.5285 36.4647 21.2861 36.2621 21.008 36.1211C20.7298 35.9801 20.4232 35.9044 20.1113 35.8998" stroke="black" stroke-width="2" stroke-linejoin="bevel"/>
<path d="M23.1713 74.7698C21.8677 75.7899 20.9678 77.239 20.6313 78.8598" stroke="black" stroke-width="2" stroke-linejoin="bevel"/>
<path d="M25.2814 90.0298L26.8514 91.5598" stroke="black" stroke-width="2" stroke-linejoin="bevel"/>
<path d="M10.9213 106.45C10.2462 106.361 9.55955 106.455 8.93328 106.722C8.307 106.99 7.76409 107.421 7.36133 107.97" stroke="black" stroke-width="2" stroke-linejoin="bevel"/>
<path d="M111.011 96.7297L113.011 95.7297" stroke="black" stroke-width="2" stroke-linejoin="bevel"/>
<path d="M170.851 105.26C171.098 105.414 171.381 105.499 171.672 105.506C171.963 105.514 172.25 105.442 172.503 105.3C172.757 105.158 172.968 104.95 173.114 104.698C173.259 104.447 173.334 104.161 173.331 103.87" stroke="black" stroke-width="2" stroke-linejoin="bevel"/>
<path d="M166.251 72.3097L167.741 70.7397" stroke="black" stroke-width="2" stroke-linejoin="bevel"/>
<path d="M177.391 63.0298L177.901 61.4998" stroke="black" stroke-width="2" stroke-linejoin="bevel"/>
</svg>
