<svg width="172" height="167" viewBox="0 0 172 167" fill="none" xmlns="http://www.w3.org/2000/svg">
<path d="M56.7934 66.1426C56.011 65.3686 54.9556 64.9333 53.8551 64.9308C53.3096 64.9205 52.7679 65.0228 52.2638 65.2313C51.7596 65.4398 51.3039 65.75 50.9251 66.1426L48.9496 68.6327C48.2005 69.4287 47.7667 70.4702 47.7295 71.5627C47.7378 72.6637 48.1756 73.7179 48.9496 74.501C49.7274 75.2768 50.7811 75.7126 51.8796 75.7128C52.4263 75.7228 52.9691 75.6203 53.4746 75.4119C53.98 75.2034 54.4372 74.8934 54.8179 74.501L56.7934 72.0109C57.5402 71.2141 57.971 70.1724 58.0052 69.0809C58 67.9809 57.5651 66.9265 56.7934 66.1426Z" fill="#DB4EA0"/>
<path d="M72.0668 98.3227C72.0668 96.2228 70.1578 93.9734 67.9167 94.1726L59.0271 94.9445C58.5986 94.9824 58.1771 95.0773 57.7738 95.2267C57.4579 94.1723 56.7361 93.2865 55.7671 92.7642C54.7981 92.242 53.6613 92.1261 52.6069 92.442C51.5524 92.7579 50.6666 93.4797 50.1444 94.4487C49.6222 95.4177 49.5062 96.5544 49.8221 97.6089C50.142 99.1292 49.9342 100.713 49.2328 102.099C48.7016 103.056 48.5605 104.18 48.8389 105.238C49.1173 106.296 49.7937 107.206 50.7269 107.777C51.2522 108.066 51.8323 108.242 52.4299 108.294C53.0275 108.345 53.6293 108.271 54.1964 108.076C54.1605 109.004 54.4371 109.917 54.9818 110.67C55.5266 111.422 56.308 111.97 57.2011 112.226L59.8904 112.973C60.951 113.252 62.0788 113.105 63.0327 112.564C63.9866 112.023 64.6909 111.13 64.995 110.076C65.1429 109.435 65.1452 108.769 65.0015 108.126C64.8579 107.484 64.572 106.883 64.165 106.366H65.3602C66.4576 106.355 67.5069 105.914 68.2829 105.138C69.0588 104.362 69.4995 103.313 69.5104 102.216C69.5104 102.216 69.5104 102.133 69.5104 102.091C70.2664 101.793 70.915 101.274 71.3712 100.602C71.8273 99.9297 72.0698 99.1352 72.0668 98.3227ZM57.5995 103.303C57.6874 103.589 57.8013 103.867 57.9398 104.133C57.7248 104.156 57.5114 104.192 57.3007 104.241C57.4169 103.892 57.5082 103.577 57.5995 103.261V103.303Z" fill="#DB4EA0"/>
<path d="M100.346 93.8157C99.4159 93.4127 98.4482 93.1041 97.457 92.8943C101.682 89.9478 97.5732 82.934 93.1243 85.8308C88.4375 88.8314 84.495 92.8591 81.5952 97.6089C81.0956 98.3496 80.8793 99.2454 80.986 100.132C81.0927 101.02 81.5152 101.839 82.1762 102.44C81.6732 102.769 81.2552 103.213 80.9561 103.734C79.8937 105.552 80.4166 108.432 82.4419 109.412L89.8706 113.006C90.8279 113.533 91.9511 113.672 93.0079 113.394C94.0647 113.116 94.9741 112.442 95.548 111.512C96.6187 109.694 96.0875 106.814 94.0622 105.834L93.4978 105.552L98.9926 105.245C102.313 105.054 105.94 104.141 105.932 99.9911C105.948 96.92 102.836 94.9113 100.346 93.8157Z" fill="#DB4EA0"/>
<path d="M139.2 101.751C138.77 99.7928 137.935 97.9468 136.746 96.3325C135.558 94.7182 134.044 93.3715 132.302 92.3798C129.721 90.8774 125.778 93.0189 125.977 96.007C125.402 95.9573 124.821 96.0164 124.268 96.1813C123.75 95.3104 122.913 94.676 121.935 94.4133C119.877 93.8489 117.279 95.1022 116.83 97.3101C115.973 101.083 116.641 105.042 118.69 108.325C119.103 108.968 119.675 109.493 120.35 109.852C120.441 111.869 122.192 114.276 124.5 114.002C124.865 113.952 125.23 113.919 125.604 113.902H126.343H126.459L127.247 114.052C127.664 114.164 128.074 114.299 128.476 114.458C130.501 115.247 133.116 113.628 133.58 111.562C133.766 110.845 133.755 110.092 133.547 109.382C133.34 108.672 132.944 108.031 132.402 107.528C132.779 107.259 133.096 106.914 133.331 106.515C134.248 106.975 135.3 107.09 136.295 106.839C137.343 106.531 138.231 105.829 138.772 104.88C139.314 103.932 139.467 102.81 139.2 101.751Z" fill="#DB4EA0"/>
<path d="M133.804 43.126C133.223 42.8687 129.654 41.358 129.654 40.6359C129.654 40.1877 132.833 38.7268 133.206 38.4612C135.871 36.5688 137.481 33.5641 136.609 30.244C136.161 28.5341 134.401 27.2808 134.003 25.712C133.605 24.1433 134.617 22.1346 134.376 20.3832C133.837 16.3659 130.45 13.1454 127.413 10.7466C124.375 8.34786 120.689 6.5218 116.788 7.42653C113.012 8.25656 110.663 13.0043 106.828 12.1743C102.993 11.3443 99.8391 9.43519 95.7388 10.0162C94.6957 10.1619 93.6819 10.47 92.7341 10.9292C86.982 4.36373 78.69 -0.0935096 69.734 1.23453C66.8889 1.67016 64.1623 2.68085 61.7206 4.20494C59.2789 5.72903 57.1734 7.73457 55.5323 10.0992L54.9264 9.38539C52.8098 6.89531 49.7387 8.16525 48.5103 10.4893C48.0505 10.3235 47.5625 10.2502 47.0743 10.2735C46.2443 7.31863 41.7621 5.99888 39.6954 8.82927C37.2961 8.68731 34.9297 9.44161 33.0552 10.9458C32.414 10.9491 31.7836 11.1116 31.2208 11.419L28.7307 8.92888C26.3735 6.5467 23.0367 7.92454 22.0241 10.4893C21.2402 10.3893 20.4458 10.4061 19.6668 10.5391C19.4759 10.3067 19.285 10.0743 19.0858 9.85021C17.542 8.14035 14.7863 8.38936 13.2092 9.85021C8.32038 14.3822 6.56903 20.5658 7.71446 27.0484C7.81251 27.6595 8.07343 28.233 8.46979 28.7084L8.51959 35.5312C6.40165 39.6977 5.17902 44.2613 4.93029 48.9286C4.68155 53.5959 5.41223 58.2636 7.07534 62.6316C7.30641 63.2837 7.68861 63.8719 8.19066 64.348C8.6927 64.8241 9.30034 65.1745 9.96383 65.3707C9.69823 66.0596 9.45752 66.7485 9.23341 67.4374C9.09458 67.765 8.9943 68.1076 8.9346 68.4584C8.30357 70.6649 7.87024 72.9231 7.63976 75.2065C7.51612 75.8687 7.60054 76.553 7.88144 77.1653C8.16233 77.7776 8.62591 78.2879 9.20851 78.6262C7.67514 82.1372 6.94359 85.9459 7.06707 89.7752C7.19055 93.6044 8.16595 97.358 9.92233 100.763C10.9184 102.755 13.5329 103.195 15.4254 102.332C15.7242 103.228 16.0147 104.133 16.3384 105.029C16.5032 105.602 16.7908 106.132 17.1812 106.582C17.5716 107.032 18.0554 107.392 18.599 107.636C19.1425 107.88 19.7328 108.003 20.3286 107.996C20.9244 107.988 21.5115 107.851 22.049 107.594C21.8581 108.665 21.6506 109.736 21.4182 110.806C20.2645 116.019 28.2659 118.235 29.4197 113.014C29.7766 111.412 30.0754 109.802 30.3327 108.192C30.8438 108.035 31.3161 107.772 31.7188 107.42C31.7455 107.618 31.7844 107.815 31.835 108.009C33.3506 113.873 34.0627 119.915 33.9516 125.971C33.9516 130.885 33.2212 138.371 36.2923 142.571C37.7946 144.638 39.2555 144.323 41.5048 144.646C42.3025 144.698 43.0816 144.91 43.7957 145.269C44.8333 145.794 45.9588 146.123 47.1158 146.24C49.8466 146.497 52.6604 145.842 55.4161 145.933C58.8143 146.088 62.1709 146.745 65.3764 147.884C65.9244 148.077 66.5069 148.154 67.0863 148.108C67.0885 148.785 67.2906 149.446 67.6673 150.008L71.6348 155.761C73.0043 157.744 74.266 160.118 75.9426 161.861C80.1924 166.269 86.9986 160.201 82.7074 155.678C82.159 155.067 81.4334 154.643 80.6323 154.466C78.5738 151.702 76.7644 148.656 74.8221 145.817C74.3574 145.099 73.6946 144.531 72.9139 144.182C72.1331 143.833 71.2679 143.717 70.423 143.85C70.4422 142.967 70.173 142.102 69.6562 141.386C69.1395 140.67 68.4033 140.142 67.5594 139.882C62.6996 138.199 57.5662 137.447 52.428 137.666C49.8383 137.799 48.1949 138.114 45.7878 136.985C44.8531 136.53 43.8222 136.308 42.7831 136.338C42.725 136.039 42.6586 135.74 42.6088 135.441C42.368 133.814 42.2431 132.172 42.2353 130.528C42.1606 127.731 42.2851 124.933 42.2353 122.136C42.094 116.612 41.2887 111.125 39.8365 105.793C38.9318 102.473 35.2381 102.199 33.1382 103.851C33.935 91.1612 32.8157 78.424 29.8181 66.0679C29.9177 64.9391 30.009 63.8185 30.0837 62.6897C30.6343 62.7136 31.1836 62.6193 31.6948 62.4131C32.2059 62.2069 32.6669 61.8937 33.0469 61.4944L40.0191 54.5222C40.1187 54.4309 40.21 54.3396 40.3013 54.24L40.4009 54.1487C40.642 53.8906 40.8613 53.613 41.0566 53.3187C41.2656 52.9875 41.4302 52.6303 41.5463 52.2563C42.1718 52.4286 42.8315 52.435 43.4602 52.2749C44.089 52.1148 44.6651 51.7937 45.1321 51.3432C46.8291 52.4354 48.8402 52.9345 50.8509 52.7626C56.6611 52.5302 62.6207 51.1025 68.2815 49.9322C71.5186 49.2516 77.8932 47.301 79.6694 51.1938C81.4457 55.0866 87.5132 53.0199 87.4053 49.1022C87.4634 51.1274 95.7803 52.5219 97.6976 52.4223C100.287 52.2646 107.658 48.878 109.318 51.7997C111.285 55.1613 115.61 53.9412 116.904 50.8037C117.145 50.2144 118.457 50.7373 118.672 51.0942C119.146 51.8708 119.857 52.4752 120.699 52.8187C121.542 53.1623 122.472 53.2269 123.354 53.0033L132.816 50.7124C136.061 49.9405 137.124 44.62 133.804 43.126ZM31.088 36.2284C30.8159 36.1605 30.538 36.1188 30.258 36.1039C30.7162 35.4375 31.1347 34.7446 31.5113 34.0289C31.4034 34.7593 31.2457 35.498 31.088 36.2284ZM96.5771 17.9679C97.1913 17.7853 98.511 18.0758 99.8972 18.4991C98.7696 18.4881 97.6502 18.3062 96.5771 17.9596V17.9679ZM120.523 42.7691C120.88 42.6196 121.229 42.4536 121.569 42.2793C121.669 42.6282 121.794 42.9694 121.943 43.3003C121.485 43.0815 121.011 42.9011 120.523 42.7607V42.7691Z" fill="#DB4EA0"/>
<path d="M92.0868 66.9643C86.6041 67.3463 81.4713 69.7969 77.7273 73.8204C74.1167 77.7547 79.9767 83.6396 83.5956 79.6886C85.7723 77.1852 88.8199 75.6035 92.12 75.2646C94.3527 75.0654 96.2701 73.4966 96.2701 71.1145C96.2369 69.0311 94.3278 66.7651 92.0868 66.9643Z" fill="#DB4EA0"/>
<path d="M156.812 89.2754C162.705 88.3209 167.312 82.7182 167.71 76.7586C168.109 70.7991 164.656 64.9142 159.576 61.8182C160.588 61.1716 161.304 60.1519 161.568 58.9806C161.832 57.8092 161.623 56.581 160.986 55.5629C160.35 54.5448 159.337 53.819 158.169 53.5433C157 53.2676 155.77 53.4643 154.745 54.0906C152.941 52.3362 150.542 51.3254 148.026 51.2593C145.509 51.1932 143.061 52.0765 141.166 53.7337C139.86 53.0918 138.418 52.7769 136.964 52.8159C135.509 52.8549 134.086 53.2468 132.816 53.9578C135.066 52.0654 136.726 49.2682 136.609 46.3299C136.493 43.3916 134.211 40.5197 131.272 40.2956C134.758 38.926 137.913 36.187 138.743 32.5348C139.573 28.8827 137.132 24.5168 133.414 24.1516C134.999 23.7532 135.962 22.035 136.02 20.4081C135.968 18.7696 135.563 17.1616 134.833 15.6936L131.04 16.0007C131.04 11.17 126.3 7.30203 121.486 6.94512C116.672 6.58821 112.041 8.98699 108.305 12.0498C104.039 7.61744 95.6227 8.52217 92.3939 13.7679C91.5638 9.19449 87.6378 5.63368 83.2636 4.04833C78.8893 2.46298 74.1333 2.55428 69.4768 3.0191C66.4887 3.31791 63.4342 3.79102 60.7948 5.21037C58.1553 6.62971 55.9391 9.18619 55.6569 12.1826C55.5114 11.4084 55.1 10.7094 54.4937 10.2065C53.8875 9.7035 53.1245 9.42823 52.3368 9.42823C51.5491 9.42823 50.7861 9.7035 50.1799 10.2065C49.5736 10.7094 49.1622 11.4084 49.0167 12.1826C49.4566 8.51387 45.1571 5.59218 41.5465 6.3226C37.9358 7.05302 35.2881 10.2652 33.8438 13.6683C28.7972 9.19449 21.8748 6.05699 15.3176 7.67554C8.76041 9.2941 3.79685 17.1627 6.91775 23.1555C7.20701 23.5948 7.39159 24.0946 7.45727 24.6164C7.39729 25.2117 7.18897 25.7825 6.85135 26.2764C6.05 27.8951 5.823 29.7383 6.20763 31.503C6.59226 33.2678 7.56565 34.8493 8.96791 35.9877C4.73478 39.5154 2.75102 45.2923 3.02493 50.812C3.29883 56.3317 5.68931 61.6024 8.90151 66.0679C7.63117 66.7954 6.5807 67.8523 5.86091 69.1271C5.14113 70.4018 4.77869 71.8472 4.81184 73.3107C4.84498 74.7743 5.27248 76.2018 6.04925 77.4426C6.82601 78.6835 7.92324 79.6917 9.22522 80.361C5.82211 85.0506 3.78025 91.1513 5.55651 96.6876C7.33276 102.224 13.8568 106.225 19.1855 103.851C19.0937 109.247 20.3883 114.577 22.9456 119.331C27.6269 115.513 31.4118 110.599 34.9809 105.735C31.6608 108.374 32.4909 114.575 36.4086 116.226C34.8315 117.812 33.2213 119.505 32.5988 121.655C31.9762 123.805 32.6735 126.502 34.707 127.423C33.6612 128.942 32.5822 130.544 32.4494 132.404C32.3166 134.263 33.5201 136.313 35.3545 136.413C34.6405 138.158 34.6132 140.109 35.2782 141.874C35.9432 143.639 37.2512 145.087 38.9396 145.928C40.628 146.768 42.5719 146.939 44.381 146.406C46.1901 145.873 47.7305 144.675 48.693 143.053C49.3252 143.804 50.1069 144.416 50.9883 144.849C51.8697 145.283 52.8316 145.528 53.8129 145.569C54.7941 145.61 55.7733 145.447 56.688 145.09C57.6028 144.732 58.4332 144.188 59.1264 143.493C59.1736 144.252 59.4698 144.975 59.9691 145.549C60.4685 146.124 61.1433 146.517 61.889 146.67C62.6346 146.822 63.4097 146.724 64.0941 146.391C64.7786 146.059 65.3343 145.509 65.6753 144.829C68.9076 150.972 72.8044 156.743 77.2957 162.036C78.0759 162.973 79.2712 163.986 80.3668 163.438C80.9598 163.03 81.3729 162.408 81.5205 161.704L86.8991 146.016C87.5137 146.756 88.2758 147.361 89.1368 147.79C89.9978 148.22 90.9388 148.466 91.9 148.512C92.8612 148.558 93.8214 148.403 94.7196 148.058C95.6177 147.713 96.4341 147.184 97.1167 146.506C97.6788 147.042 98.3473 147.455 99.079 147.716C99.8107 147.978 100.589 148.082 101.364 148.024C102.139 147.965 102.893 147.744 103.576 147.375C104.26 147.007 104.859 146.498 105.334 145.883C109.484 149.544 115.651 149.527 121.204 149.311C124.184 149.195 128.052 148.29 128.309 145.319C130.062 147.572 132.397 149.305 135.062 150.328C137.727 151.352 140.621 151.629 143.432 151.129C146.752 150.498 150.247 148.075 150.189 144.688C151.353 145.602 152.796 146.088 154.276 146.066C155.757 146.043 157.184 145.514 158.321 144.566C159.458 143.617 160.235 142.308 160.522 140.856C160.809 139.403 160.59 137.897 159.9 136.587C164.963 133.815 168.956 128.594 169.03 122.825C169.105 117.056 164.457 111.263 158.688 111.205C162.241 108.54 165.005 104.457 165.005 100.016C165.005 95.5753 161.253 89.483 156.812 89.2754Z" stroke="#231F20" stroke-width="5" stroke-linejoin="round"/>
<path d="M35.1141 104.249C34.1204 102.773 33.6211 101.019 33.6882 99.2413C33.7553 97.4631 34.3854 95.7522 35.4876 94.3552C33.9664 93.0612 32.9884 91.2416 32.7485 89.2588C32.653 88.2735 32.8786 87.2836 33.3917 86.437C33.9048 85.5903 34.6778 84.9322 35.5955 84.5609C34.4295 83.2917 33.5517 81.7854 33.0225 80.1452C32.624 78.4851 33.1304 76.4598 34.6327 75.6464C32.2505 72.1935 30.6071 67.9355 31.4205 63.8185C32.2339 59.7016 36.1517 56.0578 40.3018 56.6554C40.2035 55.419 40.5246 54.1856 41.2131 53.1539C41.9017 52.1223 42.9176 51.3527 44.0971 50.9691C45.2766 50.5855 46.5509 50.6104 47.7145 51.0397C48.8782 51.4689 49.8633 52.2776 50.5111 53.3353C52.5384 51.4431 55.2082 50.3907 57.9813 50.3907C60.7545 50.3907 63.4243 51.4431 65.4516 53.3353C66.9124 50.2061 70.2906 47.6745 73.7518 47.8488C75.4833 47.9652 77.1437 48.5817 78.5316 49.6233C79.9195 50.665 80.9753 52.0871 81.5707 53.7171C82.264 52.1799 83.3965 50.882 84.8256 49.9867C86.2547 49.0915 87.9167 48.6389 89.6024 48.686C91.2881 48.733 92.9223 49.2775 94.2993 50.251C95.6763 51.2245 96.7347 52.5835 97.3412 54.157C98.0037 52.8841 99.0072 51.8205 100.24 51.0852C101.472 50.35 102.884 49.972 104.319 49.9935C105.754 50.015 107.155 50.4352 108.365 51.2072C109.574 51.9791 110.545 53.0723 111.169 54.3645C111.506 53.2753 112.18 52.3216 113.095 51.6418C114.01 50.962 115.118 50.5915 116.258 50.5841C117.398 50.5767 118.511 50.9328 119.434 51.6007C120.358 52.2685 121.045 53.2134 121.395 54.2981C123.786 50.978 129.405 50.6958 132.103 53.7835" stroke="#231F20" stroke-width="2" stroke-linejoin="round"/>
<path d="M54.9686 91.7655C56.6202 92.9105 58.6572 93.3567 60.6362 93.0069C62.6152 92.6572 64.3758 91.5397 65.5348 89.8979C65.6178 89.7734 65.734 89.624 65.8834 89.6572C66.0329 89.6904 65.8834 89.9975 65.817 89.873C65.817 90.977 65.7257 93.5998 66.7965 93.8655C67.8987 94.065 69.031 94.0254 70.1166 93.7493C69.8427 95.6085 71.1126 97.4097 72.7561 98.3227C71.7888 99.6176 71.0863 101.091 70.689 102.657C70.2916 104.224 70.2071 105.854 70.4403 107.453C68.8235 106.672 66.9983 106.432 65.2345 106.768C63.4708 107.105 61.862 108 60.646 109.321C60.2457 107.519 59.2019 105.926 57.7104 104.839C56.2189 103.753 54.3822 103.248 52.5449 103.419C53.9117 102.067 55.0348 100.489 55.865 98.7543C56.1988 97.5897 56.2915 96.3692 56.1373 95.1675C55.9832 93.9658 55.5855 92.8082 54.9686 91.7655Z" stroke="#231F20" stroke-width="5" stroke-linejoin="round"/>
<path d="M92.8499 90.6865C94.0228 91.3735 95.2976 91.8694 96.6265 92.1556C97.292 92.2945 97.9807 92.276 98.6379 92.1016C99.295 91.9272 99.9023 91.6018 100.411 91.1513C100.991 92.098 101.757 92.9167 102.663 93.5575C103.569 94.1983 104.596 94.6476 105.682 94.8781C105.395 96.1881 105.475 97.552 105.914 98.8192C106.354 100.086 107.135 101.207 108.172 102.058C106.141 104.158 104.619 106.697 103.723 109.478C102.179 108.532 100.344 108.179 98.5596 108.484C96.7748 108.789 95.1616 109.733 94.0202 111.138C93.9723 110.205 93.7253 109.292 93.2958 108.462C92.8664 107.632 92.2643 106.903 91.5301 106.324C90.0441 105.184 88.3536 104.339 86.55 103.834C86.4096 103.808 86.2766 103.751 86.1605 103.668C86.0444 103.585 85.9478 103.477 85.8776 103.353C85.8529 103.217 85.8563 103.078 85.8878 102.944C85.9192 102.809 85.9779 102.683 86.0602 102.572C87.2638 100.34 86.6828 97.7915 88.4258 96.1314C90.4345 94.2805 93.7297 94.7619 92.8499 90.6865Z" stroke="#231F20" stroke-width="5" stroke-linejoin="round"/>
<path d="M126.591 105.552C127.217 105.967 127.723 106.539 128.059 107.21C128.396 107.881 128.551 108.629 128.508 109.379C131.803 107.199 135.799 106.345 139.697 106.988C139.396 106.548 139.209 106.04 139.154 105.509C139.099 104.979 139.177 104.443 139.382 103.95C139.803 102.967 140.39 102.063 141.116 101.278L141.946 100.223C141.394 100.003 140.9 99.659 140.502 99.217C140.104 98.775 139.814 98.2472 139.653 97.6747C139.493 97.1022 139.466 96.5005 139.576 95.9161C139.686 95.3317 139.929 94.7805 140.286 94.3053C139.456 94.1393 138.468 93.8737 138.136 93.0769C137.863 92.4129 137.979 91.367 137.306 91.2342C137.075 91.2131 136.843 91.2562 136.634 91.3587C135.412 91.9044 134.078 92.1519 132.741 92.0809C132.074 92.0337 131.431 91.8178 130.87 91.4533C130.31 91.0889 129.851 90.5879 129.537 89.9975C129.388 89.6572 129.214 89.2256 128.84 89.1675C128.725 89.1732 128.613 89.2027 128.51 89.2541C128.407 89.3055 128.316 89.3778 128.243 89.4663C126.931 90.703 126.201 92.3133 124.831 93.5168C123.694 94.5045 122.665 93.9484 122.15 95.5753C121.818 96.6128 122.856 98.2729 122.98 99.3187C123.266 101.3 123.058 103.322 122.374 105.204C123.056 104.932 123.792 104.823 124.523 104.883C125.255 104.944 125.963 105.173 126.591 105.552V105.552Z" stroke="#231F20" stroke-width="5" stroke-linejoin="round"/>
<path d="M68.8039 89.7817C68.2627 89.9771 67.6862 90.0552 67.1125 90.0109C66.5389 89.9665 65.9812 89.8007 65.4765 89.5244C64.9718 89.2481 64.5316 88.8677 64.1851 88.4083C63.8387 87.949 63.5938 87.4212 63.4668 86.86" stroke="#231F20" stroke-width="2" stroke-linejoin="round"/>
<path d="M56.4121 109.844C59.7631 108.605 63.431 108.518 66.8372 109.595" stroke="#231F20" stroke-width="2" stroke-linejoin="round"/>
<path d="M88.8662 109.702C89.2397 109.096 90.1611 109.337 90.8002 109.653L100.495 114.409" stroke="#231F20" stroke-width="2" stroke-linejoin="round"/>
<path d="M123.495 89.7818C122.449 93.6687 120.352 97.1924 117.436 99.9662" stroke="#231F20" stroke-width="2" stroke-linejoin="round"/>
<path d="M137.249 110.532C139.227 107.758 141.795 105.456 144.769 103.793" stroke="#231F20" stroke-width="2" stroke-linejoin="round"/>
<path d="M96.5029 86.2292C97.2247 88.2233 98.6706 89.8727 100.553 90.8493C102.435 91.8259 104.617 92.0582 106.662 91.4999" stroke="#231F20" stroke-width="2" stroke-linejoin="round"/>
<path d="M80.4336 78.3025C80.7324 75.5468 81.3466 72.3346 83.845 71.1227C85.4387 70.3508 87.3311 70.6745 89.0742 71.0231C88.7007 69.0228 90.1781 67.0556 92.0125 66.1841C93.8468 65.3126 95.9551 65.2794 97.9887 65.2628C98.4784 65.2628 99.159 65.4537 99.0677 65.9434" stroke="#231F20" stroke-width="2" stroke-linejoin="round"/>
<path d="M117.726 82.5771C118.795 82.6435 119.864 82.4555 120.846 82.0284C121.828 81.6013 122.695 80.9474 123.376 80.1203C124.056 79.2932 124.531 78.3165 124.761 77.2705C124.99 76.2244 124.969 75.1387 124.698 74.1026C126.109 75.1899 128.317 74.4761 129.396 73.0484C130.475 71.6208 130.699 69.7283 130.815 67.9687C130.956 65.7442 130.774 63.1213 128.906 61.9095L129.794 65.5948" stroke="#231F20" stroke-width="2" stroke-linejoin="round"/>
<path d="M52.5856 119.97C52.0136 120.223 51.5578 120.682 51.3087 121.255C51.0595 121.829 51.0354 122.475 51.241 123.066C51.4684 123.648 51.8259 124.171 52.2863 124.594C52.7466 125.017 53.2976 125.329 53.897 125.506C55.0966 125.852 56.3428 126.009 57.5907 125.971C56.4203 126.967 55.1006 128.312 55.5239 129.797C55.7641 130.508 56.2381 131.117 56.8685 131.524C58.2118 132.491 59.8282 133.006 61.4835 132.993" stroke="#231F20" stroke-width="2" stroke-linejoin="round"/>
<path d="M100.719 136.13C100.503 134.354 100.797 132.552 101.566 130.936C102.334 129.319 103.546 127.954 105.06 127C106.588 126.085 108.295 125.509 110.065 125.31C111.835 125.111 113.626 125.294 115.319 125.846C114.98 125.094 114.888 124.252 115.057 123.444C115.226 122.635 115.647 121.901 116.26 121.347C116.873 120.794 117.646 120.449 118.467 120.362C119.288 120.276 120.116 120.452 120.831 120.866C121.353 119.746 122.227 118.828 123.321 118.252C122.972 119.082 124.051 119.912 124.981 119.779C125.853 119.506 126.64 119.011 127.264 118.343C128.807 117.126 130.686 116.408 132.648 116.287C134.61 116.165 136.563 116.645 138.245 117.662" stroke="#231F20" stroke-width="2" stroke-linejoin="round"/>
<path d="M48.2776 73.1315C47.9413 71.9937 47.9413 70.7831 48.2776 69.6453C48.7175 68.5497 50.1036 67.7529 51.1162 68.3671C51.6392 68.6908 52.021 69.3465 52.6435 69.3382C53.1454 67.8338 53.8224 66.3935 54.6605 65.047C54.951 64.5822 55.3328 64.0842 55.8806 64.0344C56.2541 64.0407 56.6166 64.1624 56.9181 64.383L59.5825 65.9102" stroke="#231F20" stroke-width="2" stroke-linejoin="round"/>
<path d="M20.1816 34.4024C21.3258 35.0969 22.5642 35.6225 23.8587 35.9629C24.5073 36.1276 25.1838 36.1514 25.8424 36.0326C26.5011 35.9137 27.1266 35.655 27.6768 35.2739C29.3866 33.9376 29.4613 31.4309 29.3949 29.2728C31.055 29.9037 32.9806 30.5179 34.483 29.5883C35.9853 28.6586 36.3174 26.5338 36.4419 24.7077L37.9608 25.8697" stroke="#231F20" stroke-width="2" stroke-linejoin="round"/>
<path d="M97.3984 39.5319C97.0222 38.7902 96.8743 37.9535 96.9733 37.1277C97.0722 36.3019 97.4137 35.524 97.9545 34.8921C98.24 34.5976 98.5807 34.3622 98.9572 34.1995C99.3337 34.0367 99.7385 33.9498 100.149 33.9436C100.559 33.9374 100.966 34.0122 101.347 34.1635C101.728 34.3149 102.076 34.5399 102.37 34.8257C102.685 33.9648 103.168 33.175 103.791 32.5024C104.413 31.8298 105.164 31.2877 105.998 30.9077C106.832 30.5276 107.733 30.3173 108.65 30.2889C109.566 30.2604 110.478 30.4144 111.335 30.742C111.501 30.8167 111.683 30.9329 111.675 31.1155C111.667 31.2981 111.301 31.2898 111.368 31.1155" stroke="#231F20" stroke-width="2" stroke-linejoin="round"/>
<path d="M60.1562 39.9802C62.0644 40.9936 64.1878 41.5345 66.3482 41.5573C68.498 41.4494 70.7142 40.2873 71.5193 38.2953C73.1794 38.4032 74.8394 39.4407 76.4995 39.1253C77.1545 38.9761 77.7676 38.6815 78.2934 38.2635C78.8192 37.8454 79.2444 37.3144 79.5374 36.7099C80.1089 35.4968 80.4924 34.2037 80.6745 32.8752" stroke="#231F20" stroke-width="2" stroke-linejoin="round"/>
<path d="M21.1949 83.6064C20.1241 82.3115 18.9953 80.859 19.0119 79.1823C19.0285 77.5057 20.9293 75.8622 22.332 76.6922C22.1651 75.5635 22.3343 74.4105 22.8185 73.3773C23.3026 72.344 24.0803 71.4762 25.0545 70.8821C27.0549 69.803 29.9267 70.5002 30.9228 72.5421" stroke="#231F20" stroke-width="2" stroke-linejoin="round"/>
<path d="M141.896 72.9488C141.896 72.7287 141.984 72.5175 142.14 72.3619C142.295 72.2062 142.506 72.1188 142.727 72.1188" stroke="black" stroke-width="2" stroke-miterlimit="10"/>
<path d="M145.699 84.3948H145.275" stroke="black" stroke-width="2" stroke-miterlimit="10"/>
<path d="M142.361 126.901C143 126.635 143.699 126.548 144.383 126.649C145.067 126.75 145.711 127.035 146.246 127.473" stroke="black" stroke-width="2" stroke-miterlimit="10"/>
<path d="M129.189 137.799H130.019" stroke="black" stroke-width="2" stroke-miterlimit="10"/>
<path d="M83.3881 127.199L82.1182 125.929" stroke="black" stroke-width="2" stroke-miterlimit="10"/>
<path d="M74.1165 121.514L70.2568 120.493" stroke="black" stroke-width="2" stroke-miterlimit="10"/>
<path d="M64.8115 73.812C65.0302 72.486 65.4209 71.1941 65.9736 69.969" stroke="black" stroke-width="2" stroke-miterlimit="10"/>
<path d="M73.2705 61.5608L74.997 59.4775" stroke="black" stroke-width="2" stroke-miterlimit="10"/>
<path d="M55.3662 23.7697L56.1962 21.2133" stroke="black" stroke-width="2" stroke-miterlimit="10"/>
<path d="M67.2861 22.5496L68.5976 20.3915" stroke="black" stroke-width="2" stroke-miterlimit="10"/>
<path d="M39.3133 43.6904L36.375 42.7607" stroke="black" stroke-width="2" stroke-miterlimit="10"/>
<path d="M22.3475 53.0448C21.6704 52.7628 20.9122 52.745 20.2227 52.995" stroke="black" stroke-width="2" stroke-miterlimit="10"/>
<path d="M94.7763 21.2796L93.9463 20.0263" stroke="black" stroke-width="2" stroke-miterlimit="10"/>
<path d="M111.359 67.8607L112.189 67.0307" stroke="black" stroke-width="2" stroke-miterlimit="10"/>
<path d="M101.217 80.1285C100.787 79.7719 100.444 79.3219 100.214 78.8127C99.9839 78.3036 99.8729 77.7487 99.8893 77.1902" stroke="black" stroke-width="2" stroke-miterlimit="10"/>
</svg>
